<svg xmlns="http://www.w3.org/2000/svg" width="80" height="80" viewBox="0 0 80 80" fill="none">
  <path fillRule="evenodd" clipRule="evenodd" d="M57.1748 12C58.3531 12 59.5029 12.3616 60.469 13.0361C61.4351 13.7106 62.1708 14.6654 62.5767 15.7714C62.9827 16.8775 63.0392 18.0815 62.7388 19.2207C62.4383 20.3599 61.7954 21.3795 60.8968 22.1415H62.2461C63.7706 22.1475 65.2309 22.7557 66.3087 23.8338C67.3865 24.9118 67.9945 26.3721 68 27.8965V35.5006C68 35.6817 67.9281 35.8554 67.8 35.9835C67.6719 36.1116 67.4982 36.1835 67.3171 36.1835H50.5171C51.9311 40.9351 48.3715 45.7537 43.3805 45.7537H39.058L33.588 49.0354C33.4749 49.1026 33.3447 49.1357 33.2132 49.1306C33.0817 49.1255 32.9545 49.0824 32.847 49.0066C32.7394 48.9308 32.6561 48.8254 32.6071 48.7033C32.5581 48.5812 32.5456 48.4475 32.5709 48.3184H32.569L33.2437 44.9446C28.7585 42.6575 27.7648 36.6369 31.3553 33.0467C32.0458 32.3543 32.8663 31.8052 33.7697 31.431C34.6732 31.0567 35.6416 30.8647 36.6195 30.866H43.3805C44.402 30.8646 45.4127 31.0742 46.3494 31.4816V27.8965H46.3521C46.363 26.3674 46.9732 24.9035 48.0516 23.8193C48.5827 23.286 49.2143 22.8631 49.9098 22.5751C50.6052 22.2871 51.3509 22.1398 52.1036 22.1415H53.453C52.5544 21.3794 51.9115 20.3599 51.6111 19.2207C51.3107 18.0815 51.3673 16.8775 51.7732 15.7715C52.1791 14.6655 52.9148 13.7107 53.8808 13.0362C54.8469 12.3617 55.9967 12 57.1749 12H57.1748ZM17.0711 60.6634C17.0711 60.4823 17.143 60.3086 17.2711 60.1805C17.3992 60.0525 17.5729 59.9805 17.754 59.9805C17.9351 59.9805 18.1088 60.0525 18.2369 60.1805C18.365 60.3086 18.4369 60.4823 18.4369 60.6634V66.6342H27.2133V60.6634C27.2133 60.4823 27.2853 60.3086 27.4134 60.1805C27.5414 60.0525 27.7151 59.9805 27.8963 59.9805C28.0774 59.9805 28.2511 60.0525 28.3792 60.1805C28.5072 60.3086 28.5792 60.4823 28.5792 60.6634V66.6342H32.2844V59.7129C32.2823 58.5497 31.8194 57.4347 30.9969 56.6121C30.1745 55.7895 29.0596 55.3262 27.8963 55.3238H17.754C16.5904 55.3261 15.4752 55.7892 14.6523 56.6118C13.8294 57.4344 13.3659 58.5495 13.3632 59.7129H13.3659V66.6342H17.0711V60.6634ZM31.9482 55.6358C31.4171 55.1024 30.7855 54.6795 30.09 54.3915C29.3946 54.1035 28.6489 53.9561 27.8961 53.9579H26.5471C27.4457 53.1958 28.0886 52.1763 28.389 51.0371C28.6894 49.8979 28.6329 48.6939 28.2269 47.5879C27.821 46.4819 27.0853 45.5271 26.1193 44.8527C25.1532 44.1782 24.0034 43.8165 22.8252 43.8165C21.647 43.8165 20.4971 44.1782 19.5311 44.8527C18.565 45.5271 17.8294 46.4819 17.4234 47.5879C17.0175 48.6939 16.9609 49.8979 17.2614 51.0371C17.5618 52.1763 18.2047 53.1958 19.1032 53.9579H17.754C17.0012 53.9561 16.2556 54.1035 15.5601 54.3915C14.8646 54.6795 14.2331 55.1024 13.702 55.6358C12.6236 56.72 12.0134 58.1839 12.0025 59.7129H12V67.3171C12 67.4982 12.072 67.6719 12.2 67.8C12.3281 67.9281 12.5018 68 12.6829 68H32.9674C33.1486 68 33.3223 67.9281 33.4503 67.8C33.5784 67.6719 33.6504 67.4982 33.6504 67.3171V59.7129C33.6369 58.1838 33.026 56.7206 31.9482 55.6358ZM22.8197 53.9579C21.9521 53.9568 21.1042 53.6986 20.3833 53.2158C19.6623 52.733 19.1007 52.0474 18.7694 51.2455C18.4381 50.4436 18.352 49.5616 18.5219 48.7108C18.6918 47.86 19.1102 47.0786 19.7241 46.4655C20.338 45.8524 21.1199 45.435 21.971 45.2662C22.822 45.0973 23.7041 45.1845 24.5056 45.5168C25.3071 45.849 25.9921 46.4114 26.4741 47.1329C26.956 47.8543 27.2132 48.7025 27.2132 49.5701C27.2133 50.1467 27.0996 50.7178 26.8787 51.2505C26.6579 51.7832 26.3342 52.2672 25.9261 52.6747C25.5181 53.0822 25.0337 53.4053 24.5007 53.6255C23.9676 53.8457 23.3964 53.9586 22.8197 53.9579ZM41.2675 19.6068L32.9674 19.6242V19.6215C30.0964 19.6215 27.3431 20.762 25.313 22.7919C23.2828 24.8219 22.1423 27.5751 22.1423 30.4459V38.7347C22.1423 38.9159 22.2142 39.0895 22.3423 39.2176C22.4704 39.3457 22.6441 39.4176 22.8252 39.4176C23.0063 39.4176 23.18 39.3457 23.3081 39.2176C23.4362 39.0895 23.5081 38.9159 23.5081 38.7347V30.4459C23.5081 29.2037 23.7527 27.9738 24.2281 26.8262C24.7035 25.6786 25.4002 24.6359 26.2786 23.7575C27.157 22.8792 28.1998 22.1825 29.3475 21.7072C30.4952 21.2318 31.7252 20.9872 32.9674 20.9872V20.9846L41.2675 20.9672C41.4464 20.9649 41.6172 20.8922 41.7429 20.7649C41.8686 20.6376 41.939 20.4659 41.939 20.287C41.939 20.1081 41.8686 19.9364 41.7429 19.8091C41.6172 19.6818 41.4464 19.6091 41.2675 19.6068ZM38.7325 60.3932L47.0326 60.3759V60.3785C49.9036 60.3785 52.6569 59.238 54.687 57.2081C56.7172 55.1781 57.8577 52.4249 57.8577 49.5541V41.2653C57.8577 41.0841 57.7858 40.9105 57.6577 40.7824C57.5296 40.6543 57.3559 40.5824 57.1748 40.5824C56.9937 40.5824 56.82 40.6543 56.6919 40.7824C56.5638 40.9105 56.4919 41.0841 56.4919 41.2653V49.5541C56.4919 50.7963 56.2473 52.0262 55.7719 53.1738C55.2965 54.3214 54.5998 55.3641 53.7214 56.2425C52.843 57.1208 51.8002 57.8175 50.6525 58.2928C49.5048 58.7682 48.2748 59.0128 47.0326 59.0128V59.0155L38.7325 59.0328C38.5536 59.0351 38.3828 59.1078 38.2571 59.2351C38.1315 59.3624 38.061 59.5341 38.061 59.713C38.061 59.8919 38.1315 60.0636 38.2571 60.1909C38.3828 60.3182 38.5536 60.3909 38.7325 60.3932ZM34.0184 37.3026H45.9816C46.1628 37.3026 46.3365 37.2307 46.4645 37.1026C46.5926 36.9746 46.6646 36.8009 46.6646 36.6198C46.6646 36.4387 46.5926 36.265 46.4645 36.1369C46.3365 36.0088 46.1628 35.9369 45.9816 35.9369H34.0184C33.8372 35.9369 33.6635 36.0088 33.5355 36.1369C33.4074 36.265 33.3354 36.4387 33.3354 36.6198C33.3354 36.8009 33.4074 36.9746 33.5355 37.1026C33.6635 37.2307 33.8372 37.3026 34.0184 37.3026ZM34.0184 40.6829H45.9816C46.1628 40.6829 46.3365 40.6109 46.4645 40.4829C46.5926 40.3548 46.6646 40.1811 46.6646 40C46.6646 39.8189 46.5926 39.6452 46.4645 39.5171C46.3365 39.3891 46.1628 39.3171 45.9816 39.3171H34.0184C33.8372 39.3171 33.6635 39.3891 33.5355 39.5171C33.4074 39.6452 33.3354 39.8189 33.3354 40C33.3354 40.1811 33.4074 40.3548 33.5355 40.4829C33.6635 40.6109 33.8372 40.6829 34.0184 40.6829ZM49.9566 34.8178H51.4207V28.847C51.4207 28.6659 51.4927 28.4922 51.6207 28.3642C51.7488 28.2361 51.9225 28.1642 52.1036 28.1642C52.2847 28.1642 52.4585 28.2361 52.5865 28.3642C52.7146 28.4922 52.7866 28.6659 52.7866 28.847V34.8178H61.5628V28.847C61.5628 28.6659 61.6348 28.4922 61.7629 28.3642C61.8909 28.2361 62.0647 28.1642 62.2458 28.1642C62.4269 28.1642 62.6006 28.2361 62.7287 28.3642C62.8568 28.4922 62.9287 28.6659 62.9287 28.847V34.8178H66.6341V27.8965C66.632 26.7333 66.1691 25.6183 65.3466 24.7956C64.5242 23.973 63.4093 23.5097 62.246 23.5073H52.1036C50.9401 23.5096 49.8248 23.9727 49.0019 24.7953C48.179 25.6179 47.7155 26.733 47.7129 27.8965H47.7155V32.2575C48.6494 32.9275 49.4164 33.8038 49.9566 34.8183V34.8178ZM46.6664 33.1952C45.6867 32.5646 44.5458 32.2301 43.3807 32.2317H36.6195C35.2172 32.232 33.8581 32.7169 32.7725 33.6044C31.6868 34.4919 30.9413 35.7274 30.6623 37.1015C30.3833 38.4757 30.5879 39.904 31.2414 41.1446C31.8949 42.3852 32.9573 43.3618 34.2484 43.9089C34.4026 43.964 34.5319 44.0728 34.6127 44.2153C34.6934 44.3578 34.7203 44.5246 34.6883 44.6852L34.2103 47.0742L38.4758 44.515C38.5917 44.4319 38.7307 44.3874 38.8732 44.3876H43.3805C44.6939 44.3874 45.972 43.9619 47.0234 43.1748C48.0748 42.3876 48.8429 41.2811 49.2129 40.0209C49.5828 38.7608 49.5346 37.4147 49.0755 36.1841C48.6165 34.9536 47.7711 33.9049 46.6662 33.1949L46.6664 33.1952ZM60.2778 14.6509C59.6641 14.0373 58.8822 13.6193 58.0309 13.45C57.1797 13.2807 56.2974 13.3676 55.4955 13.6997C54.6937 14.0318 54.0083 14.5942 53.5261 15.3158C53.0439 16.0374 52.7865 16.8858 52.7865 17.7536C52.7865 18.6215 53.0439 19.4699 53.5261 20.1915C54.0083 20.913 54.6937 21.4755 55.4955 21.8076C56.2974 22.1397 57.1797 22.2266 58.0309 22.0573C58.8822 21.8879 59.6641 21.47 60.2778 20.8563C61.1007 20.0334 61.563 18.9174 61.563 17.7536C61.563 16.5899 61.1007 15.4739 60.2778 14.6509Z" fill="#E88800"/>
</svg>