<svg xmlns="http://www.w3.org/2000/svg" width="80" height="80" viewBox="0 0 80 80" fill="none">
    <path
        d="M59.0853 27.8535H20.9153C19.3074 27.8535 18 29.1676 18 30.7823V56.2522C18 57.8669 19.308 59.181 20.9153 59.181H33.9424V62.4213H29.476C28.4404 62.4213 27.5976 63.268 27.5976 64.3085V66.1128C27.5976 67.1533 28.4404 68 29.476 68H50.524C51.5596 68 52.4024 67.1533 52.4024 66.1128V64.3079C52.4024 63.2674 51.5596 62.4207 50.524 62.4207H46.0576V59.1804H59.0847C60.692 59.1804 62 57.8663 62 56.2516V30.7823C62.0006 29.1676 60.6926 27.8535 59.0853 27.8535ZM20.9153 29.071H59.0853C60.0248 29.071 60.7887 29.839 60.7887 30.7823V53.2351H19.2113V30.7823C19.2113 29.8384 19.9758 29.071 20.9153 29.071ZM45.4519 63.6388H50.524C50.8913 63.6388 51.1905 63.9394 51.1905 64.3085V66.1128C51.1905 66.4819 50.8913 66.7825 50.524 66.7825H29.476C29.1087 66.7825 28.8095 66.4819 28.8095 66.1128V64.3079C28.8095 63.9388 29.1087 63.6382 29.476 63.6382H34.5481C34.8826 63.6382 35.1537 63.3658 35.1537 63.0298V59.1804H44.8457V63.0298C44.8457 63.3664 45.1168 63.6388 45.4519 63.6388ZM59.0853 57.9635H20.9153C19.9758 57.9635 19.2119 57.196 19.2119 56.2522V54.4532H60.7887V56.2522C60.7887 57.1954 60.0242 57.9635 59.0853 57.9635ZM31.5151 16.3865C31.2786 16.1488 31.2786 15.7636 31.5151 15.5254C36.1942 10.8246 43.807 10.8252 48.4855 15.5254C48.722 15.763 48.722 16.1482 48.4855 16.3865C48.249 16.6241 47.8649 16.6241 47.6284 16.3865C43.4224 12.1609 36.5782 12.1609 32.3716 16.3865C32.2534 16.5053 32.0981 16.5647 31.9434 16.5647C31.7881 16.5647 31.6334 16.5053 31.5151 16.3865ZM40 23.7851C40.3345 23.7851 40.6056 24.0575 40.6056 24.3936V25.0068C40.6056 25.3428 40.3345 25.6153 40 25.6153C39.6655 25.6153 39.3944 25.3428 39.3944 25.0068V24.3936C39.3944 24.0581 39.6655 23.7851 40 23.7851ZM43.4158 20.6186C42.5032 19.7018 41.2901 19.1971 40 19.1971C38.7099 19.1971 37.4968 19.7018 36.5842 20.6186C36.3477 20.8563 35.9636 20.8563 35.7271 20.6186C35.4906 20.381 35.4906 19.9958 35.7271 19.7576C36.8685 18.6109 38.3856 17.9796 40 17.9796C41.6138 17.9796 43.1315 18.6115 44.2729 19.7576C44.5094 19.9952 44.5094 20.3804 44.2729 20.6186C44.1546 20.7374 43.9993 20.7968 43.8447 20.7968C43.69 20.7968 43.5341 20.7374 43.4158 20.6186ZM31.1705 42.4366C31.7074 42.748 32.294 42.8956 32.8739 42.8956C34.0559 42.8956 35.2075 42.2799 35.8394 41.1794C36.2957 40.385 36.417 39.4597 36.181 38.574C35.9445 37.6883 35.3789 36.9479 34.5887 36.4888C33.7979 36.0298 32.8769 35.9086 31.9953 36.1456C31.1138 36.3832 30.3767 36.9515 29.9198 37.7453C29.4635 38.5398 29.3422 39.4651 29.5782 40.3508C29.8141 41.237 30.3797 41.9775 31.1705 42.4366ZM30.9686 38.3544C31.2631 37.8419 31.7391 37.4747 32.3083 37.3217C32.4982 37.2707 32.6912 37.2455 32.8829 37.2455C33.2651 37.2455 33.6426 37.3463 33.9825 37.5437C34.4925 37.8395 34.8581 38.3178 35.0104 38.8896C35.1627 39.4615 35.0844 40.0585 34.79 40.5716C34.182 41.6301 32.8297 41.9937 31.7767 41.3829C31.2667 41.087 30.9011 40.6088 30.7488 40.0369C30.5959 39.4645 30.6742 38.8674 30.9686 38.3544ZM25.7192 42.1473C25.7204 42.1473 25.7216 42.1473 25.7228 42.1473C26.243 42.1473 26.7274 42.4281 26.9878 42.88C27.2482 43.333 27.247 43.8953 26.986 44.3483C26.5745 45.0618 26.7441 45.9493 27.3892 46.4587C27.7212 46.7215 28.0772 46.9633 28.4463 47.1776C28.8148 47.3912 29.2013 47.5802 29.5943 47.738C29.7956 47.819 30.0034 47.858 30.2077 47.858C30.7745 47.858 31.3138 47.5586 31.6149 47.0336C31.8747 46.5799 32.3597 46.2979 32.8799 46.2979C33.4001 46.2979 33.8845 46.5793 34.1443 47.033C34.5529 47.7452 35.4016 48.0422 36.1619 47.7386C36.9581 47.4206 37.7017 46.9897 38.3718 46.4593C39.0163 45.9493 39.1853 45.0618 38.7738 44.3489C38.5122 43.8959 38.5116 43.333 38.772 42.88C39.0318 42.4275 39.5162 42.1473 40.0364 42.1473C40.0382 42.1473 40.04 42.1473 40.0424 42.1473C40.8613 42.1473 41.5404 41.5569 41.6574 40.7426C41.7799 39.8941 41.7787 39.0319 41.655 38.1798C41.5368 37.3667 40.8577 36.7775 40.0406 36.7775C40.0394 36.7775 40.0382 36.7775 40.037 36.7775C39.5168 36.7775 39.0318 36.4966 38.772 36.0448C38.5116 35.5923 38.5128 35.0295 38.7738 34.5765C39.1853 33.863 39.0157 32.9755 38.3706 32.4661C38.0391 32.2038 37.6832 31.962 37.3135 31.7472C36.9443 31.533 36.5579 31.3446 36.1655 31.1868C35.404 30.8813 34.5541 31.1772 34.1449 31.8912C33.8851 32.3449 33.4001 32.6269 32.8799 32.6269C32.3597 32.6269 31.8753 32.3455 31.6155 31.8918C31.2069 31.179 30.3582 30.8825 29.5979 31.1862C28.8017 31.5042 28.0581 31.9344 27.3874 32.4655C26.7435 32.9755 26.5745 33.863 26.9854 34.5759C27.247 35.0289 27.2476 35.5917 26.9872 36.0448C26.7274 36.4972 26.243 36.7775 25.7228 36.7775C25.721 36.7775 25.7192 36.7775 25.7174 36.7775C24.8985 36.7775 24.2194 37.3679 24.1018 38.1822C23.9793 39.0307 23.9805 39.8929 24.1041 40.7444C24.2224 41.5581 24.9015 42.1473 25.7192 42.1473ZM25.3011 38.3568C25.3315 38.1468 25.5065 37.995 25.7174 37.995C25.7186 37.995 25.721 37.995 25.7228 37.995C26.6748 37.995 27.5612 37.4813 28.0366 36.6538C28.5132 35.8246 28.512 34.7949 28.0336 33.9656C27.9279 33.782 27.9715 33.5534 28.1369 33.422C28.7157 32.9641 29.3572 32.5927 30.0446 32.3179C30.2405 32.2393 30.4591 32.3161 30.5643 32.4997C31.0397 33.3295 31.9266 33.845 32.8793 33.845C33.8319 33.845 34.7189 33.3289 35.1943 32.4991C35.3 32.3155 35.5187 32.2387 35.7152 32.3179C36.0538 32.4541 36.3877 32.6167 36.7072 32.8021C37.0268 32.9875 37.3344 33.1963 37.6211 33.4232C37.7871 33.5546 37.8307 33.7832 37.725 33.9668C37.2472 34.7955 37.246 35.8252 37.722 36.6544C38.1974 37.4819 39.0844 37.9962 40.0364 37.9962C40.0376 37.9962 40.0394 37.9962 40.0394 37.9962C40.2497 37.9962 40.4247 38.148 40.4551 38.3574C40.562 39.0931 40.5632 39.8371 40.4575 40.5692C40.427 40.7792 40.2526 40.931 40.0418 40.931C40.0406 40.931 40.0382 40.931 40.0358 40.931C39.0838 40.931 38.1974 41.4447 37.722 42.2721C37.2454 43.1014 37.2466 44.1311 37.725 44.9604C37.8307 45.144 37.7871 45.3726 37.6217 45.504C37.0435 45.9619 36.4014 46.3333 35.714 46.6081C35.5181 46.6867 35.2994 46.6099 35.1943 46.4263C34.7189 45.5964 33.8319 45.081 32.8793 45.081C31.9266 45.081 31.0397 45.597 30.5643 46.4269C30.4585 46.6105 30.2393 46.6873 30.044 46.6087C29.7042 46.4725 29.3703 46.3093 29.052 46.1245C28.733 45.9391 28.4254 45.7302 28.1381 45.5034C27.9721 45.372 27.9285 45.1434 28.0342 44.9598C28.512 44.1311 28.5132 43.1014 28.0372 42.2721C27.5612 41.4447 26.6748 40.9304 25.7228 40.9304H25.7198C25.5095 40.9304 25.3345 40.7786 25.3041 40.5692C25.1966 39.8335 25.196 39.0895 25.3011 38.3568ZM43.5592 46.4971C43.5592 46.4971 43.5604 46.4971 43.5615 46.4971C43.9104 46.4971 44.2347 46.6849 44.4085 46.9879C44.5829 47.291 44.5823 47.6678 44.4073 47.9714C44.0561 48.5799 44.2006 49.3372 44.7513 49.7728C45.0117 49.9786 45.2901 50.1676 45.5785 50.335C45.867 50.5025 46.1692 50.6501 46.4768 50.7737C46.6489 50.8433 46.8268 50.8763 47.0007 50.8763C47.4844 50.8763 47.9443 50.6213 48.2012 50.173C48.375 49.8688 48.6999 49.6804 49.0481 49.6804C49.3963 49.6804 49.7212 49.8688 49.895 50.173C50.2439 50.7809 50.9671 51.0341 51.6164 50.7749C52.2399 50.5259 52.8217 50.1892 53.3461 49.774C53.8956 49.339 54.0401 48.5817 53.6889 47.9732C53.5139 47.6696 53.5133 47.2928 53.6877 46.9892C53.8615 46.6861 54.1865 46.4983 54.5347 46.4983C54.5359 46.4983 54.5371 46.4983 54.5389 46.4983C55.2377 46.4983 55.817 45.9943 55.9174 45.2994C56.0129 44.6351 56.0123 43.9607 55.9156 43.294C55.8146 42.6004 55.2353 42.0969 54.5377 42.0969C54.5377 42.0969 54.5359 42.0969 54.5347 42.0969C54.1859 42.0969 53.8615 41.9091 53.6877 41.6061C53.5133 41.303 53.5139 40.9262 53.6889 40.6226C54.0401 40.0141 53.8956 39.2563 53.3449 38.8218C53.0845 38.616 52.8062 38.427 52.5177 38.2596C52.2292 38.0922 51.9264 37.9446 51.6194 37.8209C50.9695 37.5599 50.2444 37.8125 49.895 38.4222C49.7212 38.7264 49.3963 38.9148 49.0481 38.9148C48.6999 38.9148 48.375 38.7258 48.2012 38.4222C47.8524 37.8143 47.1291 37.5611 46.4798 37.8203C45.8569 38.0694 45.2751 38.406 44.7501 38.8218C44.2006 39.2569 44.0561 40.0141 44.4073 40.6226C44.5823 40.9262 44.5829 41.303 44.4085 41.6061C44.2347 41.9091 43.9098 42.0969 43.5615 42.0969C43.5598 42.0969 43.558 42.0969 43.5568 42.0969C42.858 42.0969 42.2786 42.6004 42.1789 43.2952C42.0833 43.9595 42.0839 44.6339 42.1806 45.3006C42.2822 45.9937 42.8615 46.4971 43.5592 46.4971ZM43.3782 43.4692C43.3913 43.3774 43.4648 43.3138 43.5574 43.3138C43.5574 43.3138 43.5604 43.3138 43.5615 43.3138C44.3416 43.3138 45.0685 42.8926 45.4579 42.2145C45.8485 41.5353 45.8473 40.691 45.4555 40.0111C45.4095 39.9307 45.4274 39.8347 45.5003 39.7771C45.9333 39.4345 46.4135 39.1561 46.9278 38.9508C47.0132 38.9166 47.1052 38.9484 47.1512 39.0289C47.5412 39.7087 48.2681 40.1311 49.0487 40.1311C49.8293 40.1311 50.5562 39.7087 50.9462 39.0282C50.9922 38.9478 51.0836 38.9154 51.1702 38.9502C51.4241 39.0523 51.6737 39.1741 51.9126 39.3127C52.1515 39.4513 52.3815 39.6073 52.5965 39.7777C52.6688 39.8353 52.6873 39.9313 52.6413 40.0117C52.2495 40.691 52.2489 41.5353 52.6389 42.2139C53.0289 42.8926 53.7552 43.3132 54.5353 43.3132C54.5365 43.3132 54.5377 43.3132 54.5377 43.3132C54.6296 43.3132 54.7031 43.3768 54.7168 43.4686C54.7969 44.0189 54.7975 44.5757 54.7186 45.1236C54.7055 45.2154 54.632 45.279 54.5394 45.279C54.5383 45.279 54.5365 45.279 54.5353 45.279C53.7552 45.279 53.0283 45.7002 52.6389 46.3783C52.2483 47.0576 52.2495 47.9018 52.6413 48.5817C52.6873 48.6621 52.6694 48.7581 52.5971 48.8151C52.1647 49.1577 51.6845 49.4356 51.1696 49.6408C51.0842 49.675 50.9916 49.6426 50.9462 49.5628C50.5562 48.8829 49.8293 48.4605 49.0487 48.4605C48.2681 48.4605 47.5406 48.8829 47.1512 49.5634C47.1052 49.6438 47.0126 49.6756 46.9272 49.6414C46.6733 49.5394 46.4231 49.4176 46.1848 49.2789C45.9459 49.1403 45.7159 48.9843 45.5015 48.8145C45.4286 48.7569 45.4101 48.6609 45.4567 48.5805C45.8485 47.9012 45.8491 47.057 45.4591 46.3777C45.0691 45.6996 44.3428 45.2784 43.5627 45.2784H43.5604C43.4684 45.2784 43.3943 45.2148 43.3812 45.123C43.2999 44.5739 43.2993 44.0171 43.3782 43.4692ZM47.6678 46.6993C48.0937 46.9459 48.5655 47.0726 49.0439 47.0726C49.284 47.0726 49.5253 47.0408 49.763 46.9765C50.4756 46.7845 51.0711 46.3255 51.4402 45.684C51.8093 45.042 51.9073 44.2943 51.7161 43.5784C51.525 42.8626 51.0681 42.2643 50.4296 41.8935C49.1108 41.1284 47.4181 41.5839 46.6566 42.9094C46.2875 43.5514 46.1896 44.2991 46.3807 45.015C46.5718 45.7308 47.0287 46.3291 47.6678 46.6993ZM47.706 43.5178C47.9927 43.0186 48.5147 42.7396 49.0511 42.7396C49.3139 42.7396 49.5803 42.8068 49.8234 42.9478C50.5634 43.3768 50.8178 44.3315 50.3908 45.075C50.1835 45.435 49.8496 45.693 49.4495 45.8004C49.0499 45.9079 48.6318 45.8526 48.2734 45.645C47.9151 45.4368 47.6583 45.1014 47.5513 44.6993C47.4444 44.2979 47.4994 43.8779 47.706 43.5178Z"
        fill="#E88800" />
</svg>