<svg xmlns="http://www.w3.org/2000/svg" width="80" height="80" viewBox="0 0 80 80" fill="none">
  <path d="M65.7051 39.4211C66.1365 39.4182 66.5586 39.2941 66.9234 39.0628C67.2882 38.8316 67.5812 38.5025 67.7692 38.1127C67.9572 37.723 68.0326 37.2882 67.9871 36.8576C67.9415 36.427 67.7767 36.0178 67.5113 35.6764C67.2459 35.335 66.8906 35.075 66.4855 34.9258C66.0805 34.7766 65.6419 34.7442 65.2194 34.8323C64.7969 34.9204 64.4075 35.1254 64.0952 35.4242C63.7828 35.7229 63.5601 36.1035 63.4523 36.5228H49.9354C49.7063 35.2831 49.2351 34.101 48.5491 33.0447H58.8311C58.9717 33.5912 59.3061 34.0674 59.7715 34.3841C60.237 34.7009 60.8016 34.8364 61.3595 34.7653C61.9174 34.6942 62.4302 34.4213 62.802 33.9979C63.1738 33.5744 63.3789 33.0294 63.3789 32.4651C63.3789 31.9007 63.1738 31.3557 62.802 30.9323C62.4302 30.5088 61.9174 30.236 61.3595 30.1649C60.8016 30.0938 60.237 30.2293 59.7715 30.546C59.3061 30.8627 58.9717 31.339 58.8311 31.8854H47.6826L47.5093 31.6535V20.0022H55.6541C55.7883 20.5529 56.1188 21.0352 56.5833 21.3579C57.0478 21.6806 57.614 21.8213 58.1749 21.7535C58.7358 21.6857 59.2525 21.414 59.6273 20.9898C60.0021 20.5657 60.2091 20.0184 60.2091 19.4515C60.2091 18.8845 60.0021 18.3373 59.6273 17.9131C59.2525 17.4889 58.7358 17.2172 58.1749 17.1494C57.614 17.0816 57.0478 17.2224 56.5833 17.5451C56.1188 17.8678 55.7883 18.3501 55.6541 18.9008H46.9317C46.7785 18.9008 46.6316 18.9619 46.5233 19.0706C46.4149 19.1793 46.3541 19.3267 46.3541 19.4805V30.6681C45.1474 29.7529 43.742 29.1371 42.2528 28.8711C42.2811 28.8166 42.3006 28.7579 42.3106 28.6972V24.0019C42.8551 23.8608 43.3296 23.5253 43.6453 23.0582C43.9609 22.5911 44.0959 22.0245 44.0251 21.4647C43.9542 20.9048 43.6823 20.3901 43.2604 20.017C42.8384 19.644 42.2953 19.4381 41.7329 19.4381C41.1706 19.4381 40.6275 19.644 40.2055 20.017C39.7835 20.3901 39.5116 20.9048 39.4408 21.4647C39.3699 22.0245 39.505 22.5911 39.8206 23.0582C40.1362 23.5253 40.6108 23.8608 41.1553 24.0019V28.6972H40.5199C39.5616 28.6915 38.6078 28.8282 37.6894 29.103V19.3645C38.234 19.2234 38.7085 18.8879 39.0241 18.4208C39.3398 17.9537 39.4748 17.3872 39.4039 16.8273C39.3331 16.2674 39.0612 15.7527 38.6392 15.3797C38.2172 15.0066 37.6742 14.8008 37.1118 14.8008C36.5494 14.8008 36.0064 15.0066 35.5844 15.3797C35.1624 15.7527 34.8905 16.2674 34.8196 16.8273C34.7488 17.3872 34.8838 17.9537 35.1995 18.4208C35.5151 18.8879 35.9896 19.2234 36.5342 19.3645V29.2769C36.5281 29.3769 36.548 29.4767 36.5919 29.5667C35.2197 30.1833 34.0123 31.1168 33.0683 32.2912V24.0019C33.6128 23.8608 34.0874 23.5253 34.403 23.0582C34.7186 22.5911 34.8537 22.0245 34.7828 21.4647C34.712 20.9048 34.4401 20.3901 34.0181 20.017C33.5961 19.644 33.053 19.4381 32.4907 19.4381C31.9283 19.4381 31.3852 19.644 30.9632 20.017C30.5413 20.3901 30.2694 20.9048 30.1985 21.4647C30.1277 22.0245 30.2627 22.5911 30.5783 23.0582C30.894 23.5253 31.3685 23.8608 31.913 24.0019V32.7549H18.3385V24.6395C18.8872 24.5049 19.3678 24.1731 19.6894 23.707C20.011 23.2409 20.1512 22.6727 20.0837 22.1098C20.0161 21.547 19.7454 21.0285 19.3227 20.6523C18.9 20.2762 18.3546 20.0685 17.7897 20.0685C17.2248 20.0685 16.6794 20.2762 16.2567 20.6523C15.834 21.0285 15.5633 21.547 15.4957 22.1098C15.4281 22.6727 15.5684 23.2409 15.89 23.707C16.2115 24.1731 16.6922 24.5049 17.2409 24.6395V33.3346C17.2409 33.4883 17.3018 33.6358 17.4101 33.7445C17.5184 33.8532 17.6654 33.9142 17.8186 33.9142H31.9708L31.7397 34.4359C30.4788 34.4792 29.2472 34.8288 28.1505 35.4548C27.0539 36.0808 26.1249 36.9644 25.4434 38.0299H21.1689C21.0283 37.4835 20.6939 37.0073 20.2285 36.6905C19.763 36.3738 19.1985 36.2383 18.6406 36.3094C18.0827 36.3805 17.5698 36.6533 17.198 37.0768C16.8262 37.5002 16.6211 38.0452 16.6211 38.6096C16.6211 39.1739 16.8262 39.7189 17.198 40.1424C17.5698 40.5658 18.0827 40.8387 18.6406 40.9098C19.1985 40.9809 19.763 40.8454 20.2285 40.5286C20.6939 40.2119 21.0283 39.7357 21.1689 39.1892H24.8658C24.4402 40.1772 24.2238 41.2431 24.2304 42.3195C24.2304 42.4354 24.2304 42.5513 24.2304 42.6673H16.5478C16.4072 42.1208 16.0728 41.6446 15.6074 41.3279C15.1419 41.0111 14.5773 40.8756 14.0194 40.9467C13.4615 41.0178 12.9486 41.2907 12.5769 41.7142C12.2051 42.1376 12 42.6826 12 43.2469C12 43.8113 12.2051 44.3563 12.5769 44.7797C12.9486 45.2032 13.4615 45.476 14.0194 45.5471C14.5773 45.6182 15.1419 45.4827 15.6074 45.166C16.0728 44.8493 16.4072 44.373 16.5478 43.8266H24.2882C24.5312 45.1027 25.0871 46.298 25.9056 47.3046H21.1689C21.0283 46.7582 20.6939 46.282 20.2285 45.9652C19.763 45.6485 19.1985 45.513 18.6406 45.5841C18.0827 45.6552 17.5698 45.9281 17.198 46.3515C16.8262 46.775 16.6211 47.3199 16.6211 47.8843C16.6211 48.4486 16.8262 48.9936 17.198 49.4171C17.5698 49.8405 18.0827 50.1134 18.6406 50.1845C19.1985 50.2556 19.763 50.1201 20.2285 49.8034C20.6939 49.4866 21.0283 49.0104 21.1689 48.464H27.1186C28.4929 49.5786 30.2038 50.1917 31.9708 50.203V58.898H23.7683C23.6341 58.3473 23.3035 57.865 22.839 57.5423C22.3746 57.2196 21.8083 57.0789 21.2475 57.1467C20.6866 57.2145 20.1699 57.4862 19.7951 57.9103C19.4202 58.3345 19.2133 58.8818 19.2133 59.4487C19.2133 60.0156 19.4202 60.5629 19.7951 60.9871C20.1699 61.4113 20.6866 61.6829 21.2475 61.7508C21.8083 61.8186 22.3746 61.6778 22.839 61.3551C23.3035 61.0324 23.6341 60.5501 23.7683 59.9994H32.4907C32.6439 59.9994 32.7908 59.9383 32.8991 59.8296C33.0075 59.7209 33.0683 59.5735 33.0683 59.4197V50.145H37.1118V55.9997C36.5673 56.1408 36.0927 56.4763 35.7771 56.9434C35.4615 57.4105 35.3264 57.977 35.3973 58.5369C35.4682 59.0968 35.7401 59.6115 36.162 59.9845C36.584 60.3576 37.1271 60.5634 37.6894 60.5634C38.2518 60.5634 38.7949 60.3576 39.2169 59.9845C39.6388 59.6115 39.9107 59.0968 39.9816 58.5369C40.0525 57.977 39.9174 57.4105 39.6018 56.9434C39.2862 56.4763 38.8116 56.1408 38.2671 55.9997V50.145H41.7329V60.637C41.1884 60.7781 40.7139 61.1137 40.3982 61.5807C40.0826 62.0478 39.9476 62.6144 40.0184 63.1743C40.0893 63.7341 40.3612 64.2488 40.7832 64.6219C41.2051 64.995 41.7482 65.2008 42.3106 65.2008C42.8729 65.2008 43.416 64.995 43.838 64.6219C44.26 64.2488 44.5319 63.7341 44.6027 63.1743C44.6736 62.6144 44.5385 62.0478 44.2229 61.5807C43.9073 61.1137 43.4327 60.7781 42.8882 60.637V50.145H46.3541V55.9997C45.8095 56.1408 45.335 56.4763 45.0194 56.9434C44.7037 57.4105 44.5687 57.977 44.6396 58.5369C44.7104 59.0968 44.9823 59.6115 45.4043 59.9845C45.8263 60.3576 46.3693 60.5634 46.9317 60.5634C47.4941 60.5634 48.0372 60.3576 48.4591 59.9845C48.8811 59.6115 49.153 59.0968 49.2239 58.5369C49.2947 57.977 49.1597 57.4105 48.844 56.9434C48.5284 56.4763 48.0539 56.1408 47.5093 55.9997V50.145H49.5889C50.5721 50.1384 51.5399 49.8987 52.4132 49.4453C53.2866 48.992 54.0408 48.338 54.6143 47.5365H62.8168V55.6519C62.2681 55.7865 61.7875 56.1183 61.4659 56.5844C61.1443 57.0505 61.0041 57.6187 61.0716 58.1816C61.1392 58.7444 61.4099 59.2629 61.8326 59.6391C62.2553 60.0152 62.8007 60.2229 63.3656 60.2229C63.9305 60.2229 64.4759 60.0152 64.8986 59.6391C65.3213 59.2629 65.592 58.7444 65.6596 58.1816C65.7272 57.6187 65.5869 57.0505 65.2653 56.5844C64.9437 56.1183 64.4631 55.7865 63.9144 55.6519V46.9568C63.9144 46.8031 63.8535 46.6556 63.7452 46.5469C63.6368 46.4382 63.4899 46.3772 63.3367 46.3772H55.2497C55.8171 45.1023 55.9392 43.6726 55.5963 42.3195H58.8311C58.9717 42.8659 59.3061 43.3421 59.7715 43.6588C60.237 43.9756 60.8016 44.1111 61.3595 44.04C61.9174 43.9689 62.4302 43.696 62.802 43.2726C63.1738 42.8491 63.3789 42.3041 63.3789 41.7398C63.3789 41.1754 63.1738 40.6305 62.802 40.207C62.4302 39.7836 61.9174 39.5107 61.3595 39.4396C60.8016 39.3685 60.237 39.504 59.7715 39.8207C59.3061 40.1375 58.9717 40.6137 58.8311 41.1601H55.2497C54.8345 40.2801 54.2222 39.5084 53.4607 38.9051C52.6992 38.3017 51.809 37.8832 50.8597 37.6821H63.4523C63.581 38.1824 63.8725 38.6253 64.2807 38.9403C64.6888 39.2554 65.1901 39.4246 65.7051 39.4211ZM61.0839 31.3057C61.3124 31.3057 61.5358 31.3737 61.7258 31.5011C61.9157 31.6285 62.0638 31.8096 62.1513 32.0214C62.2387 32.2332 62.2616 32.4664 62.217 32.6912C62.1724 32.9161 62.0624 33.1227 61.9008 33.2848C61.7393 33.447 61.5334 33.5574 61.3093 33.6021C61.0852 33.6469 60.8529 33.6239 60.6418 33.5362C60.4307 33.4484 60.2503 33.2998 60.1233 33.1092C59.9964 32.9185 59.9286 32.6944 59.9286 32.4651C59.9286 32.1576 60.0504 31.8627 60.267 31.6453C60.4837 31.4279 60.7775 31.3057 61.0839 31.3057ZM57.9069 18.2631C58.1354 18.2631 58.3587 18.3311 58.5487 18.4585C58.7387 18.5859 58.8868 18.767 58.9742 18.9788C59.0617 19.1907 59.0846 19.4238 59.04 19.6487C58.9954 19.8735 58.8854 20.0801 58.7238 20.2423C58.5622 20.4044 58.3564 20.5148 58.1323 20.5595C57.9082 20.6043 57.6759 20.5813 57.4648 20.4936C57.2537 20.4058 57.0733 20.2572 56.9463 20.0666C56.8194 19.8759 56.7516 19.6518 56.7516 19.4225C56.7516 19.115 56.8733 18.8201 57.09 18.6027C57.3066 18.3853 57.6005 18.2631 57.9069 18.2631ZM40.5777 21.7412C40.5777 21.5119 40.6454 21.2877 40.7723 21.0971C40.8993 20.9064 41.0797 20.7578 41.2908 20.6701C41.5019 20.5823 41.7342 20.5594 41.9583 20.6041C42.1824 20.6488 42.3883 20.7593 42.5498 20.9214C42.7114 21.0835 42.8214 21.2901 42.866 21.515C42.9106 21.7399 42.8877 21.973 42.8003 22.1848C42.7128 22.3967 42.5648 22.5777 42.3748 22.7051C42.1848 22.8325 41.9614 22.9005 41.7329 22.9005C41.4265 22.9005 41.1327 22.7784 40.916 22.5609C40.6994 22.3435 40.5777 22.0486 40.5777 21.7412ZM35.9565 17.1038C35.9565 16.8745 36.0243 16.6504 36.1512 16.4597C36.2782 16.2691 36.4586 16.1205 36.6697 16.0327C36.8808 15.945 37.1131 15.922 37.3372 15.9667C37.5613 16.0115 37.7671 16.1219 37.9287 16.284C38.0903 16.4462 38.2003 16.6527 38.2449 16.8776C38.2895 17.1025 38.2666 17.3356 38.1791 17.5475C38.0917 17.7593 37.9436 17.9404 37.7536 18.0678C37.5637 18.1951 37.3403 18.2631 37.1118 18.2631C36.8054 18.2631 36.5115 18.141 36.2949 17.9236C36.0782 17.7062 35.9565 17.4113 35.9565 17.1038ZM16.6055 22.3208C16.6055 22.0915 16.6733 21.8674 16.8002 21.6767C16.9272 21.4861 17.1076 21.3375 17.3187 21.2497C17.5298 21.162 17.7621 21.139 17.9862 21.1838C18.2103 21.2285 18.4161 21.3389 18.5777 21.5011C18.7393 21.6632 18.8493 21.8698 18.8939 22.0947C18.9385 22.3195 18.9156 22.5527 18.8282 22.7645C18.7407 22.9763 18.5926 23.1574 18.4026 23.2848C18.2127 23.4122 17.9893 23.4802 17.7608 23.4802C17.4544 23.4802 17.1606 23.358 16.9439 23.1406C16.7272 22.9232 16.6055 22.6283 16.6055 22.3208ZM18.9161 39.7109C18.6876 39.7109 18.4642 39.643 18.2743 39.5156C18.0843 39.3882 17.9362 39.2071 17.8487 38.9953C17.7613 38.7834 17.7384 38.5503 17.783 38.3254C17.8276 38.1005 17.9376 37.894 18.0992 37.7318C18.2608 37.5697 18.4666 37.4593 18.6907 37.4145C18.9148 37.3698 19.1471 37.3928 19.3582 37.4805C19.5693 37.5683 19.7497 37.7169 19.8767 37.9075C20.0036 38.0982 20.0714 38.3223 20.0714 38.5516C20.0714 38.8591 19.9497 39.154 19.733 39.3714C19.5163 39.5888 19.2225 39.7109 18.9161 39.7109ZM14.295 44.3483C14.0665 44.3483 13.8431 44.2803 13.6531 44.1529C13.4631 44.0255 13.3151 43.8445 13.2276 43.6326C13.1402 43.4208 13.1173 43.1877 13.1619 42.9628C13.2065 42.7379 13.3165 42.5313 13.4781 42.3692C13.6396 42.2071 13.8455 42.0966 14.0696 42.0519C14.2937 42.0072 14.526 42.0301 14.7371 42.1179C14.9482 42.2056 15.1286 42.3542 15.2555 42.5449C15.3825 42.7355 15.4502 42.9597 15.4502 43.189C15.4502 43.4964 15.3285 43.7913 15.1119 44.0087C14.8952 44.2262 14.6014 44.3483 14.295 44.3483ZM21.5155 60.5791C21.287 60.5791 21.0636 60.5111 20.8736 60.3837C20.6837 60.2563 20.5356 60.0752 20.4481 59.8634C20.3607 59.6516 20.3378 59.4185 20.3824 59.1936C20.427 58.9687 20.537 58.7621 20.6986 58.6C20.8601 58.4378 21.066 58.3274 21.2901 58.2827C21.5142 58.2379 21.7465 58.2609 21.9576 58.3486C22.1687 58.4364 22.3491 58.585 22.4761 58.7756C22.603 58.9663 22.6708 59.1904 22.6708 59.4197C22.6708 59.7272 22.549 60.0221 22.3324 60.2395C22.1157 60.4569 21.8219 60.5791 21.5155 60.5791ZM38.8447 58.2604C38.8447 58.4897 38.777 58.7138 38.65 58.9045C38.5231 59.0951 38.3426 59.2437 38.1315 59.3315C37.9204 59.4192 37.6882 59.4422 37.4641 59.3975C37.24 59.3527 37.0341 59.2423 36.8725 59.0802C36.711 58.918 36.6009 58.7115 36.5564 58.4866C36.5118 58.2617 36.5347 58.0286 36.6221 57.8167C36.7095 57.6049 36.8576 57.4238 37.0476 57.2964C37.2376 57.169 37.4609 57.1011 37.6894 57.1011C37.9958 57.1011 38.2897 57.2232 38.5064 57.4406C38.723 57.658 38.8447 57.9529 38.8447 58.2604ZM43.4659 62.8978C43.4659 63.1271 43.3981 63.3512 43.2712 63.5419C43.1442 63.7325 42.9638 63.8811 42.7527 63.9688C42.5416 64.0566 42.3093 64.0796 42.0852 64.0348C41.8611 63.9901 41.6552 63.8797 41.4937 63.7175C41.3321 63.5554 41.2221 63.3488 41.1775 63.1239C41.1329 62.899 41.1558 62.6659 41.2432 62.4541C41.3307 62.2423 41.4787 62.0612 41.6687 61.9338C41.8587 61.8064 42.0821 61.7384 42.3106 61.7384C42.617 61.7384 42.9108 61.8606 43.1275 62.078C43.3441 62.2954 43.4659 62.5903 43.4659 62.8978ZM48.087 58.2604C48.087 58.4897 48.0192 58.7138 47.8923 58.9045C47.7653 59.0951 47.5849 59.2437 47.3738 59.3315C47.1627 59.4192 46.9304 59.4422 46.7063 59.3975C46.4822 59.3527 46.2764 59.2423 46.1148 59.0802C45.9532 58.918 45.8432 58.7115 45.7986 58.4866C45.754 58.2617 45.7769 58.0286 45.8644 57.8167C45.9518 57.6049 46.0999 57.4238 46.2899 57.2964C46.4798 57.169 46.7032 57.1011 46.9317 57.1011C47.2381 57.1011 47.532 57.2232 47.7486 57.4406C47.9653 57.658 48.087 57.9529 48.087 58.2604ZM64.5498 57.9706C64.5498 58.1999 64.482 58.424 64.3551 58.6147C64.2281 58.8053 64.0477 58.9539 63.8366 59.0417C63.6255 59.1294 63.3932 59.1524 63.1691 59.1076C62.945 59.0629 62.7391 58.9525 62.5776 58.7903C62.416 58.6282 62.306 58.4216 62.2614 58.1967C62.2168 57.9718 62.2397 57.7387 62.3271 57.5269C62.4146 57.3151 62.5627 57.134 62.7527 57.0066C62.9426 56.8792 63.166 56.8112 63.3945 56.8112C63.7009 56.8112 63.9947 56.9334 64.2114 57.1508C64.4281 57.3682 64.5498 57.6631 64.5498 57.9706ZM61.0839 40.5805C61.3124 40.5805 61.5358 40.6484 61.7258 40.7758C61.9157 40.9032 62.0638 41.0843 62.1513 41.2961C62.2387 41.508 62.2616 41.7411 62.217 41.966C62.1724 42.1909 62.0624 42.3974 61.9008 42.5596C61.7393 42.7217 61.5334 42.8321 61.3093 42.8769C61.0852 42.9216 60.8529 42.8986 60.6418 42.8109C60.4307 42.7231 60.2503 42.5745 60.1233 42.3839C59.9964 42.1932 59.9286 41.9691 59.9286 41.7398C59.9286 41.4323 60.0504 41.1374 60.267 40.92C60.4837 40.7026 60.7775 40.5805 61.0839 40.5805ZM65.7051 35.9431C65.9335 35.9431 66.1569 36.0111 66.3469 36.1385C66.5369 36.2659 66.685 36.4469 66.7724 36.6588C66.8598 36.8706 66.8827 37.1037 66.8381 37.3286C66.7936 37.5535 66.6835 37.7601 66.522 37.9222C66.3604 38.0843 66.1545 38.1948 65.9304 38.2395C65.7063 38.2842 65.474 38.2613 65.2629 38.1735C65.0518 38.0858 64.8714 37.9372 64.7445 37.7465C64.6175 37.5559 64.5498 37.3317 64.5498 37.1024C64.5498 36.795 64.6715 36.5001 64.8881 36.2827C65.1048 36.0652 65.3987 35.9431 65.7051 35.9431ZM31.3354 21.7412C31.3354 21.5119 31.4031 21.2877 31.5301 21.0971C31.657 20.9064 31.8375 20.7578 32.0486 20.6701C32.2597 20.5823 32.4919 20.5594 32.7161 20.6041C32.9402 20.6488 33.146 20.7593 33.3076 20.9214C33.4691 21.0835 33.5792 21.2901 33.6238 21.515C33.6683 21.7399 33.6455 21.973 33.558 22.1848C33.4706 22.3967 33.3225 22.5777 33.1325 22.7051C32.9425 22.8325 32.7192 22.9005 32.4907 22.9005C32.1843 22.9005 31.8904 22.7784 31.6738 22.5609C31.4571 22.3435 31.3354 22.0486 31.3354 21.7412ZM18.9161 48.9857C18.6876 48.9857 18.4642 48.9177 18.2743 48.7903C18.0843 48.6629 17.9362 48.4818 17.8487 48.27C17.7613 48.0581 17.7384 47.825 17.783 47.6002C17.8276 47.3753 17.9376 47.1687 18.0992 47.0066C18.2608 46.8444 18.4666 46.734 18.6907 46.6893C18.9148 46.6445 19.1471 46.6675 19.3582 46.7552C19.5693 46.843 19.7497 46.9916 19.8767 47.1822C20.0036 47.3729 20.0714 47.597 20.0714 47.8263C20.0714 48.1338 19.9497 48.4287 19.733 48.6461C19.5163 48.8635 19.2225 48.9857 18.9161 48.9857ZM54.6721 43.8266C54.6571 45.1748 54.1167 46.4636 53.1667 47.417C52.2166 48.3704 50.9324 48.9126 49.5889 48.9277H31.9708C30.2013 48.9277 28.5043 48.2223 27.2531 46.9667C26.0019 45.7111 25.299 44.0082 25.299 42.2325C25.299 40.4568 26.0019 38.7539 27.2531 37.4983C28.5043 36.2427 30.2013 35.5373 31.9708 35.5373H32.0286C32.1581 35.5607 32.2917 35.5389 32.4073 35.4757C32.5228 35.4124 32.6134 35.3115 32.664 35.1895C33.3973 33.3862 34.7241 31.8894 36.4234 30.9483C38.1227 30.0073 40.092 29.6789 42.0033 30.0178C43.9146 30.3566 45.6525 31.3423 46.9276 32.8107C48.2027 34.2791 48.9381 36.1416 49.0112 38.0879C49.0112 38.2416 49.0721 38.389 49.1804 38.4978C49.2887 38.6065 49.4357 38.6675 49.5889 38.6675C50.9423 38.6828 52.2351 39.2331 53.1868 40.1989C54.1385 41.1648 54.6722 42.4683 54.6721 43.8266Z" fill="#E88800"/>
</svg>