<svg width="138" height="26" viewBox="0 0 138 26" fill="none" xmlns="http://www.w3.org/2000/svg">
<g id="Group">
<g id="Group_2">
<path id="Vector" d="M2.9745 20.3216C1.94579 20.3238 0.995459 19.7724 0.486976 18.8781C-0.0141775 17.9894 0.0158746 16.8966 0.565118 16.0368L5.68776 7.99249C6.22154 7.11231 7.18761 6.5874 8.21652 6.6185C9.24469 6.64314 10.1799 7.21961 10.6639 8.12707C11.1414 9.03004 11.0817 10.1164 10.5098 10.9641L5.39039 19.0083C4.86276 19.8305 3.95142 20.3259 2.9745 20.3216Z" fill="#F62B54"/>
<path id="Vector_2" d="M11.7613 20.3212C10.7281 20.3212 9.77738 19.7688 9.27814 18.881C8.77809 17.9947 8.80815 16.9047 9.35628 16.0473L14.4692 8.02144C14.9952 7.12863 15.9642 6.5914 17.0001 6.61814C18.042 6.64093 18.9862 7.22374 19.4637 8.1354C19.938 9.04706 19.8685 10.14 19.2792 10.9854L14.1674 19.0112C13.6415 19.8299 12.7343 20.3237 11.7613 20.3212Z" fill="#FFCC00"/>
<path id="Vector_3" d="M20.3514 20.3904C21.8079 20.3904 22.9887 19.2345 22.9887 17.8085C22.9887 16.3825 21.8079 15.2266 20.3514 15.2266C18.8949 15.2266 17.7141 16.3825 17.7141 17.8085C17.7141 19.2345 18.8949 20.3904 20.3514 20.3904Z" fill="#00CA72"/>
</g>
<path id="Vector_4" d="M134.922 15.3712C135.719 15.3712 136.195 15.9377 136.195 16.8657V20.0456H137.277V16.793C137.277 15.2149 136.534 14.3 135.136 14.3C134.589 14.3 133.721 14.4498 133.203 15.4559C132.958 14.8513 132.401 14.4302 131.752 14.3597C131.552 14.323 131.348 14.311 131.144 14.3239C130.699 14.3597 129.907 14.6365 129.611 15.2638V14.4205H128.528V20.0456H129.611V17.01C129.611 15.8292 130.384 15.3712 131.157 15.3712C131.882 15.3712 132.359 15.9258 132.359 16.8537V20.0456H133.435V17.01C133.435 16.0701 134 15.3604 134.922 15.3712ZM124.552 19.1058C125.047 19.1166 125.525 18.9191 125.871 18.5609C126.218 18.2028 126.403 17.7155 126.384 17.2151C126.384 16.0821 125.551 15.3712 124.552 15.3712C123.553 15.3712 122.72 16.0821 122.72 17.2151C122.701 17.7144 122.885 18.2006 123.23 18.5577C123.575 18.9158 124.051 19.1144 124.544 19.1058H124.552ZM124.552 20.1607C122.97 20.1607 121.649 18.9918 121.649 17.2086C121.649 15.4255 122.97 14.2935 124.552 14.2935C126.135 14.2935 127.466 15.4255 127.466 17.2086C127.466 18.9918 126.127 20.1661 124.545 20.1661L124.552 20.1607ZM116.076 17.2086L116.065 17.2151C116.065 15.432 117.421 14.3 119.014 14.2935C119.823 14.2778 120.601 14.606 121.155 15.1965L120.335 15.8954C119.983 15.5498 119.507 15.3591 119.014 15.3658C118.015 15.3658 117.147 16.0767 117.147 17.2086C117.147 17.9738 117.602 18.6629 118.3 18.956C118.998 19.249 119.801 19.0862 120.335 18.5457L121.167 19.2447C120.612 19.8413 119.829 20.1742 119.014 20.1607C117.433 20.1607 116.076 18.9918 116.076 17.2086ZM112.611 18.9657C112.608 18.7671 112.685 18.5757 112.824 18.4337C112.963 18.2916 113.152 18.2105 113.351 18.2082C113.549 18.2105 113.739 18.2916 113.878 18.4337C114.017 18.5757 114.093 18.7671 114.091 18.9657C114.071 19.3611 113.747 19.6725 113.351 19.6766C112.955 19.6725 112.631 19.3611 112.611 18.9657Z" fill="#333333"/>
<path id="Vector_5" d="M115.572 7.27098H111.718L109.016 14.2354L106.329 7.27098H102.475L107.161 18.276L104.246 25.5519H108.072L115.572 7.27098ZM92.1334 13.3921C92.1334 15.1503 93.6702 16.3072 95.1798 16.3072C96.6635 16.3072 98.121 15.2306 98.121 13.391C98.121 11.5514 96.6635 10.4737 95.1798 10.4737C93.6702 10.4737 92.1334 11.6317 92.1334 13.391V13.3921ZM98.121 19.5371V18.1447C97.3396 19.3276 95.5163 19.7748 94.5808 19.7748C91.4833 19.7748 88.3847 17.3329 88.3847 13.391C88.3847 9.45028 91.4822 7.00834 94.5808 7.00834C95.3611 7.00834 97.1844 7.26881 98.121 8.6363V7.27533H101.713V19.5393L98.121 19.5382V19.5371ZM87.3624 19.5371H83.77V18.0133C83.1698 19.1421 81.7145 19.7998 80.2037 19.7998C77.0791 19.7998 74.3192 17.3046 74.3192 13.4409C74.3192 9.50454 77.0791 7.00617 80.2037 7.00617C81.7123 7.00617 83.172 7.63565 83.77 8.76545V0.589844H87.3624V19.5371ZM83.6919 13.3639C83.6919 11.5254 82.3646 10.4477 80.8809 10.4477C79.3441 10.4477 78.0678 11.6035 78.0678 13.3639C78.0678 15.1807 79.3441 16.3311 80.8799 16.3311C82.3917 16.3333 83.6919 15.1243 83.6919 13.3639ZM65.437 13.047C65.437 11.1824 66.4008 10.5519 67.676 10.5519C68.8992 10.5519 69.7848 11.3658 69.7848 12.9938V19.5349H73.4032V12.207C73.4032 8.71444 71.6841 7.00617 68.9502 7.00617C67.5187 7.00617 66.0871 7.82015 65.436 9.05523V7.27098H61.8197V19.5349H65.437V13.047ZM54.4722 19.7455C51.0361 19.7455 48.1698 17.2243 48.1698 13.3628C48.1698 9.49912 51.0329 7.00291 54.4722 7.00291C57.9115 7.00291 60.7995 9.49912 60.7995 13.3628C60.7995 17.2265 57.9083 19.7466 54.4722 19.7466V19.7455ZM54.4722 16.1748C55.9808 16.1748 57.2321 15.07 57.2321 13.3639C57.2321 11.7088 55.9819 10.579 54.4722 10.579C53.7376 10.5675 53.0305 10.8583 52.5165 11.3832C51.9996 11.9108 51.7188 12.6255 51.7383 13.3639C51.7394 15.0722 52.9886 16.1748 54.4722 16.1748ZM41.683 10.5529C42.7498 10.5529 43.6875 11.3941 43.6875 12.9949V19.5371H47.2799V12.5716C47.2799 8.86855 45.4794 7.004 42.5935 7.004C41.7361 7.004 40.1212 7.26447 38.9491 9.18329C38.2718 7.7648 36.9706 7.02896 35.0474 7.02896C33.6837 7.02202 32.4419 7.81311 31.8718 9.05197V7.27207H28.2512V19.536H31.8685V13.047C31.8685 11.1824 32.8844 10.5519 33.9773 10.5519C35.0192 10.5519 35.9547 11.3658 35.9819 12.9157V19.536H39.6003V13.047C39.6003 11.2638 40.538 10.554 41.683 10.554V10.5529Z" fill="#333333"/>
</g>
</svg>
