<svg width="138" height="30" viewBox="0 0 138 30" fill="none" xmlns="http://www.w3.org/2000/svg">
<g id="Group">
<path id="Vector" d="M136.7 10.7549C137.776 11.6248 136.637 13.0008 135.688 12.3049C134.518 11.5616 131.86 11.2137 131.528 12.8584C131.101 15.4524 137.981 13.9657 137.871 18.1727C137.76 22.1902 131.94 22.285 129.757 20.4819C129.235 20.055 129.251 19.359 129.535 18.9319C129.947 18.5208 130.405 18.3784 130.943 18.8212C132.24 19.7069 135.577 20.3713 135.815 18.1254C135.609 15.7845 129.029 17.1921 129.52 12.7004C129.883 9.63196 134.518 9.07834 136.7 10.7549ZM126.324 11.3717V17.0973C126.324 23.0125 116.787 23.0125 116.787 17.0973V11.3717C116.787 9.94835 118.859 9.88502 118.859 11.3717V17.0973C118.859 20.213 124.252 20.4029 124.252 17.0973V11.3717C124.252 9.96405 126.324 9.85336 126.324 11.3717ZM61.0166 9.93252C63.7844 10.0748 66.6788 11.9885 66.6788 15.7371C66.6788 19.4855 63.7844 21.431 61.0166 21.431C58.0906 21.5575 55.0538 19.6121 55.0538 15.7371C55.0538 11.8462 58.0906 9.93252 61.0166 9.93252ZM74.9511 10.3278C78.9685 10.3278 79.7909 15.7054 76.4379 17.0498L78.5414 19.6121C79.3639 20.83 77.719 22.0003 76.77 20.7983L74.3818 17.382H71.8986V20.2447C71.8986 21.6207 69.795 21.6682 69.795 20.2764V11.2927C69.795 10.7391 70.2221 10.3278 70.744 10.3278H74.9511ZM42.1788 10.1856C42.6375 10.1856 42.9064 10.4545 43.1752 10.7549L46.6548 15.4524L50.261 10.5809C50.7829 9.93253 52.064 10.1856 52.064 11.2769V20.1815C52.064 20.8774 51.6211 21.2728 51.115 21.2728C50.5456 21.2728 50.1028 20.8774 50.1028 20.1815V14.3294L47.4773 17.6509C46.9078 18.3467 46.1961 18.3467 45.6742 17.6509L43.3176 14.3294V20.1815C43.3176 20.8774 42.7482 21.2728 42.1788 21.2728C41.6727 21.2728 41.2298 20.8774 41.2298 20.1815V11.2769C41.2298 10.4545 41.9257 10.1856 42.1788 10.1856ZM86.4184 10.1856C88.4745 10.1856 90.325 11.5616 90.325 14.2029C90.325 16.7018 88.4745 18.0937 86.4184 18.0937H83.777V20.1815C83.777 20.8774 83.3342 21.2728 82.7648 21.2728C82.2429 21.2728 81.6893 20.8774 81.6893 20.1815V11.2769C81.6893 10.7549 82.1005 10.1856 82.7648 10.1856H86.4184ZM101.523 10.3278C102.077 10.3278 102.504 10.7391 102.504 11.3085V20.2922C102.504 20.8457 102.077 21.2728 101.523 21.2728C100.954 21.2728 100.448 20.8457 100.448 20.2922V16.8284H95.2919V20.2922C95.2919 20.8457 94.8806 21.2728 94.327 21.2728C93.6153 21.2728 93.2041 20.8457 93.2041 20.2922V11.3085C93.2041 10.7391 93.6153 10.3278 94.327 10.3278C94.8806 10.3278 95.2919 10.7391 95.2919 11.3085V14.7565H100.448V11.3085C100.448 10.7391 100.954 10.3278 101.523 10.3278ZM112.532 10.3278C113.987 10.3278 113.955 12.384 112.532 12.384H107.977V14.7565H111.963C113.37 14.7565 113.37 16.8284 111.963 16.8284H107.977V19.2008H112.801C114.24 19.2008 114.351 21.2728 112.801 21.2728H106.854C106.3 21.2728 105.873 20.8457 105.873 20.2922V11.3085C105.873 10.7391 106.3 10.3278 106.854 10.3278H112.532ZM60.8426 11.9885C59.0711 11.9885 57.1416 13.2382 57.1416 15.7371C57.1416 18.2202 59.0711 19.4855 60.8426 19.4855C62.6615 19.4855 64.6069 18.2202 64.6069 15.7371C64.6069 13.2382 62.6615 11.9885 60.8426 11.9885ZM86.4184 12.1784H83.777V16.1167H86.4184C87.478 16.1167 88.3163 15.1835 88.3163 14.2029C88.3163 13.0958 87.478 12.1784 86.4184 12.1784ZM74.9511 12.2416H71.8986V15.5631H74.9511C77.0072 15.5631 77.1338 12.2416 74.9511 12.2416Z" fill="#3DB5E6"/>
<g id="Group_2">
<path id="Vector_2" d="M28.6834 18.6292C27.1414 24.8242 21.4996 29.2317 14.8547 29.2317C8.17981 29.2317 2.58652 24.5633 1.10773 18.3427C2.8859 18.3427 4.54824 18.3509 5.31998 18.3509C5.68404 18.3509 5.75474 18.3572 5.77581 18.3557C6.3565 18.3271 7.08462 18.1354 7.56902 16.9575L9.4149 12.1289L13.5143 21.999C13.8829 22.7858 14.4982 22.7301 14.8653 22.7301H14.8999C15.6159 22.7301 15.9274 22.4792 16.1996 21.9602L20.8301 12.2029L22.4097 16.6003L22.506 16.8132C22.84 17.5458 23.0802 18.2695 23.9067 18.3641C24.0771 18.3835 26.0556 18.349 28.7229 18.349C28.7229 18.349 28.7229 18.3661 28.6834 18.6292Z" fill="#3DB5E6"/>
<path id="Vector_3" d="M29.1361 14.9814C29.1361 15.0551 29.1361 15.2405 29.1346 15.2405H29.1316H24.8743L22.3905 8.30221C22.1694 7.78621 21.8369 7.01265 20.8681 7.01265C20.2754 7.01265 19.7398 7.50217 19.4359 8.31002L14.9333 18.7394L10.5992 8.37328C10.175 7.45261 9.88161 7.01961 9.03314 7.01961C8.45696 7.01961 8.03423 7.23185 7.57389 8.32252L5.00141 15.3435L0.72747 15.339C0.724458 15.2322 0.722961 15.1254 0.722961 15.0186C0.722961 7.21391 7.05037 0.90625 14.8551 0.90625C22.6598 0.90625 29.1361 7.17668 29.1361 14.9814Z" fill="#D8292F"/>
</g>
</g>
</svg>
