<svg width="138" height="22" viewBox="0 0 138 22" fill="none" xmlns="http://www.w3.org/2000/svg">
<g id="Group">
<g id="Group_2">
<path id="Vector" d="M19.5875 21.7518V16.1914H13.5322C11.8855 16.1914 10.3602 17.0558 9.5168 18.4671L7.55371 21.7518H19.5875Z" fill="#63D2F9"/>
<path id="Vector_2" d="M0.31543 0.390625V5.95102H16.2644L19.5876 0.390625H0.31543Z" fill="#4E5EE4"/>
<path id="Vector_3" d="M7.94847 9.08181L0.333008 21.7528H6.8212L15.9279 6.59375H12.3451C10.543 6.59375 8.87345 7.53855 7.94847 9.08181Z" fill="#63B0F9"/>
</g>
<path id="Vector_4" d="M33.3918 16.416C30.1293 16.416 27.7285 14.0445 27.7285 10.8621C27.7285 7.71037 30.1446 5.30828 33.4072 5.30828C36.6697 5.30828 39.0859 7.74097 39.0859 10.8621C39.0859 14.0139 36.6544 16.416 33.3918 16.416ZM33.4072 14.4729C35.4694 14.4729 36.9467 12.9429 36.9467 10.8621C36.9467 8.81196 35.4694 7.25137 33.4072 7.25137C31.3296 7.25137 29.8522 8.81196 29.8522 10.8621C29.8522 12.9429 31.3296 14.4729 33.4072 14.4729ZM41.2706 19.7361V8.16937H43.2404V9.19446H43.3482C43.5636 8.85786 44.3023 7.97047 45.7797 7.97047C48.0419 7.97047 49.5963 9.65346 49.5963 12.1626C49.5963 14.6718 48.0573 16.416 45.8412 16.416C44.41 16.416 43.6406 15.6204 43.3789 15.1767H43.2712V19.7361H41.2706ZM45.395 14.6106C46.6877 14.6106 47.5648 13.6161 47.5648 12.1932C47.5648 10.7245 46.6877 9.77586 45.3796 9.77586C44.0561 9.77586 43.225 10.8315 43.225 12.1932C43.225 13.6926 44.1484 14.6106 45.395 14.6106ZM55.3205 16.416C52.9352 16.416 51.2423 14.6412 51.2423 12.2391C51.2423 9.69936 52.9506 7.97047 55.3205 7.97047C57.9213 7.97047 59.3372 9.88296 59.3372 12.1473V12.7746H53.1814C53.243 13.9986 54.0894 14.8248 55.3821 14.8248C56.367 14.8248 57.1211 14.3658 57.3981 13.7079H59.2602C58.8601 15.345 57.4135 16.416 55.3205 16.416ZM53.2122 11.367H57.4289C57.3365 10.2808 56.4901 9.56166 55.3205 9.56166C54.1971 9.56166 53.3353 10.3573 53.2122 11.367ZM61.4911 16.2171V8.16937H63.3994V9.14856H63.5071C63.8303 8.55186 64.6305 7.97047 65.7847 7.97047C67.6007 7.97047 68.7087 9.24036 68.7087 10.9539V16.2171H66.7081V11.4741C66.7081 10.495 66.0771 9.83706 65.1538 9.83706C64.1842 9.83706 63.4917 10.6021 63.4917 11.6118V16.2171H61.4911ZM70.6934 16.2171V14.3964L76.2951 7.37377V7.26667H70.8934V5.50718H78.8497V7.31257L73.248 14.3352V14.4576H78.8805V16.2171H70.6934ZM84.297 16.416C81.9117 16.416 80.2188 14.6412 80.2188 12.2391C80.2188 9.69936 81.9271 7.97047 84.297 7.97047C86.8978 7.97047 88.3136 9.88296 88.3136 12.1473V12.7746H82.1579C82.2195 13.9986 83.0659 14.8248 84.3586 14.8248C85.3435 14.8248 86.0976 14.3658 86.3746 13.7079H88.2367C87.8366 15.345 86.39 16.416 84.297 16.416ZM82.1887 11.367H86.4054C86.313 10.2808 85.4666 9.56166 84.297 9.56166C83.1736 9.56166 82.3118 10.3573 82.1887 11.367ZM90.4676 19.7361V8.16937H92.4374V9.19446H92.5452C92.7606 8.85786 93.4993 7.97047 94.9767 7.97047C97.2389 7.97047 98.7932 9.65346 98.7932 12.1626C98.7932 14.6718 97.2543 16.416 95.0382 16.416C93.607 16.416 92.8376 15.6204 92.5759 15.1767H92.4682V19.7361H90.4676ZM94.5919 14.6106C95.8847 14.6106 96.7618 13.6161 96.7618 12.1932C96.7618 10.7245 95.8847 9.77586 94.5766 9.77586C93.2531 9.77586 92.422 10.8315 92.422 12.1932C92.422 13.6926 93.3454 14.6106 94.5919 14.6106ZM100.947 19.7361V8.16937H102.917V9.19446H103.025C103.24 8.85786 103.979 7.97047 105.456 7.97047C107.719 7.97047 109.273 9.65346 109.273 12.1626C109.273 14.6718 107.734 16.416 105.518 16.416C104.087 16.416 103.317 15.6204 103.056 15.1767H102.948V19.7361H100.947ZM105.072 14.6106C106.364 14.6106 107.241 13.6161 107.241 12.1932C107.241 10.7245 106.364 9.77586 105.056 9.77586C103.733 9.77586 102.902 10.8315 102.902 12.1932C102.902 13.6926 103.825 14.6106 105.072 14.6106ZM114.997 16.416C112.612 16.416 110.919 14.6412 110.919 12.2391C110.919 9.69936 112.627 7.97047 114.997 7.97047C117.598 7.97047 119.014 9.88296 119.014 12.1473V12.7746H112.858C112.92 13.9986 113.766 14.8248 115.059 14.8248C116.044 14.8248 116.798 14.3658 117.075 13.7079H118.937C118.537 15.345 117.09 16.416 114.997 16.416ZM112.889 11.367H117.105C117.013 10.2808 116.167 9.56166 114.997 9.56166C113.874 9.56166 113.012 10.3573 112.889 11.367ZM123.138 16.2171C121.722 16.2171 120.921 15.3756 120.921 13.9527V4.74219H122.922V13.7691C122.922 14.2281 123.153 14.4729 123.568 14.4729H123.892V16.2171H123.138ZM126.815 7.09837C126.092 7.09837 125.584 6.65468 125.584 5.93558C125.584 5.24708 126.092 4.78809 126.815 4.78809C127.538 4.78809 128.046 5.24708 128.046 5.93558C128.046 6.65468 127.538 7.09837 126.815 7.09837ZM125.815 16.2171V8.16937H127.815V16.2171H125.815ZM130.246 16.2171V8.16937H132.155V9.14856H132.262C132.585 8.55186 133.386 7.97047 134.54 7.97047C136.356 7.97047 137.464 9.24036 137.464 10.9539V16.2171H135.463V11.4741C135.463 10.495 134.832 9.83706 133.909 9.83706C132.939 9.83706 132.247 10.6021 132.247 11.6118V16.2171H130.246Z" fill="#282846"/>
</g>
</svg>
