<svg width="138" height="18" viewBox="0 0 138 18" fill="none" xmlns="http://www.w3.org/2000/svg">
<g id="Group">
<path id="Vector" d="M59.2273 11.7557H68.2897L63.4978 4.04621L54.703 17.9853H50.7004L61.3978 1.24149C61.8629 0.564969 62.638 0.15625 63.4978 0.15625C64.3293 0.15625 65.1045 0.550882 65.5555 1.2133L76.2952 17.9853H72.2925L70.4039 14.8705H61.2286L59.2273 11.7557ZM100.805 14.8705V0.325379H97.4082V16.294C97.4082 16.7309 97.5773 17.1537 97.9015 17.4779C98.2256 17.802 98.6625 17.9853 99.1417 17.9853H114.631L116.632 14.8705H100.805ZM44.6117 12.2631C47.9098 12.2631 50.5877 9.59929 50.5877 6.30127C50.5877 3.00326 47.9098 0.325379 44.6117 0.325379H29.7523V17.9853H33.1476V3.44017H44.3862C45.9648 3.44017 47.2332 4.72273 47.2332 6.30127C47.2332 7.8798 45.9648 9.16237 44.3862 9.16237L34.8107 9.14827L44.9499 17.9853H49.8829L43.0614 12.2631H44.6117ZM8.85084 17.9853C3.97565 17.9853 0.0194092 14.0389 0.0194092 9.16237C0.0194092 4.28581 3.97565 0.325379 8.85084 0.325379H19.1155C23.992 0.325379 27.9455 4.28581 27.9455 9.16237C27.9455 14.0389 23.992 17.9853 19.1155 17.9853H8.85084ZM18.8872 14.8705C22.0457 14.8705 24.6038 12.3194 24.6038 9.16237C24.6038 6.00529 22.0457 3.44017 18.8872 3.44017H9.07771C5.92063 3.44017 3.36109 6.00529 3.36109 9.16237C3.36109 12.3194 5.92063 14.8705 9.07771 14.8705H18.8872ZM83.3845 17.9853C78.508 17.9853 74.5476 14.0389 74.5476 9.16237C74.5476 4.28581 78.508 0.325379 83.3845 0.325379H95.5759L93.5887 3.44017H83.61C80.4529 3.44017 77.8879 6.00529 77.8879 9.16237C77.8879 12.3194 80.4529 14.8705 83.61 14.8705H95.8577L93.8564 17.9853H83.3845ZM124.92 14.8705C122.312 14.8705 120.1 13.1228 119.423 10.7127H133.94L135.941 7.59792H119.423C120.1 5.20193 122.312 3.44017 124.92 3.44017H134.884L136.9 0.325379H124.694C119.818 0.325379 115.857 4.28581 115.857 9.16237C115.857 14.0389 119.818 17.9853 124.694 17.9853H135.166L137.168 14.8705H124.92Z" fill="#EA1B22"/>
</g>
</svg>
