<svg width="138" height="33" viewBox="0 0 138 33" fill="none" xmlns="http://www.w3.org/2000/svg">
<g id="Group">
<path id="Vector" d="M0.835716 24.3274C0.671241 24.2324 0.536499 23.9995 0.536499 23.8104V8.32749C0.536499 8.1381 0.671241 7.90557 0.835716 7.81035L14.4165 0.0712809C14.5811 -0.0237603 14.8504 -0.0237603 15.0151 0.0712809L28.595 7.81121C28.7596 7.90625 28.8942 8.13879 28.8942 8.32818V23.8111C28.8942 24 28.7596 24.2327 28.595 24.3281L15.0151 32.0674C14.8504 32.1624 14.5811 32.1624 14.4165 32.0674L0.835716 24.3274ZM41.6505 9.86843V16.1484H44.3359C46.2849 16.1484 47.151 15.3544 47.151 14.0551V11.9617C47.151 10.6626 46.2849 9.86843 44.3359 9.86843H41.6505ZM41.6505 18.1454V23.7517C41.6505 24.0884 41.5639 24.2327 41.2607 24.2327H39.9396C39.6581 24.2327 39.5498 24.0884 39.5498 23.7517V8.35276C39.5498 8.0159 39.6581 7.87137 39.9396 7.87137H44.3359C48.0607 7.87137 49.2518 9.60376 49.2518 11.5768V14.4402C49.2518 16.413 48.0607 18.1454 44.3359 18.1454H41.6505ZM54.1389 9.86843V15.7634H56.8241C58.7732 15.7634 59.6396 14.9934 59.6396 13.6701V11.9617C59.6396 10.6626 58.7732 9.86843 56.8241 9.86843H54.1389ZM54.1389 17.7605V23.7517C54.1389 24.0884 54.0521 24.2327 53.7489 24.2327H52.428C52.1465 24.2327 52.0382 24.0884 52.0382 23.7517V8.35276C52.0382 8.0159 52.1465 7.87137 52.428 7.87137H56.8241C60.5491 7.87137 61.7401 9.60376 61.7401 11.5768V14.0791C61.7401 15.5468 61.0688 16.8702 59.2063 17.4478L61.8051 23.7517C61.9134 24.0404 61.7185 24.2327 61.4153 24.2327H60.1158C59.8127 24.2327 59.7694 24.0404 59.6396 23.7517L57.1922 17.7605H54.1389ZM73.1246 11.7693C73.1246 10.47 72.2105 9.67595 70.1533 9.67595C68.1189 9.67595 67.2048 10.47 67.2048 11.7693V20.3348C67.2048 21.6343 68.1189 22.4281 70.1533 22.4281C72.2105 22.4281 73.1246 21.6343 73.1246 20.3348V11.7693ZM64.9647 11.3843C64.9647 9.41127 66.2447 7.67905 70.1533 7.67905C74.0847 7.67905 75.3649 9.41127 75.3649 11.3843V20.72C75.3649 22.693 74.0847 24.4254 70.1533 24.4254C66.2447 24.4254 64.9647 22.693 64.9647 20.72V11.3843ZM87.4336 7.87137C87.7307 7.87137 87.8679 7.99184 87.8679 8.32853V9.41127C87.8679 9.74813 87.7307 9.86843 87.4336 9.86843H83.7765V23.7517C83.7765 24.0884 83.6622 24.2327 83.3649 24.2327H81.9478C81.6507 24.2327 81.5364 24.0884 81.5364 23.7517V9.86843H77.8791C77.5593 9.86843 77.445 9.74813 77.445 9.41127V8.32853C77.445 7.99184 77.5593 7.87137 77.8791 7.87137H87.4336ZM98.0858 11.7693C98.0858 10.47 97.1714 9.67595 95.1144 9.67595C93.08 9.67595 92.1657 10.47 92.1657 11.7693V20.3348C92.1657 21.6343 93.08 22.4281 95.1144 22.4281C97.1714 22.4281 98.0858 21.6343 98.0858 20.3348V11.7693ZM89.9256 11.3843C89.9256 9.41127 91.2057 7.67905 95.1144 7.67905C99.0458 7.67905 100.326 9.41127 100.326 11.3843V20.72C100.326 22.693 99.0458 24.4254 95.1144 24.4254C91.2057 24.4254 89.9256 22.693 89.9256 20.72V11.3843ZM113.557 23.7756C113.557 24.0884 113.47 24.2327 113.167 24.2327H111.976C111.759 24.2327 111.672 24.1605 111.586 24.0162L106.497 14.1034C106.02 13.2129 105.76 12.467 105.717 12.3708V23.7756C105.717 24.0884 105.609 24.2327 105.327 24.2327H104.114C103.833 24.2327 103.725 24.0884 103.725 23.7756V8.32853C103.725 8.0159 103.833 7.87137 104.114 7.87137H105.327C105.5 7.87137 105.609 7.94355 105.674 8.06385L110.893 18.1936C111.196 18.771 111.564 19.7333 111.564 19.7333V8.32853C111.564 8.0159 111.694 7.87137 111.976 7.87137H113.167C113.47 7.87137 113.557 8.0159 113.557 8.32853V23.7756ZM117.28 24.2327C116.999 24.2327 116.891 24.0884 116.891 23.7517V8.35276C116.891 8.0159 116.999 7.87137 117.28 7.87137H124.687C124.969 7.87137 125.098 7.99184 125.098 8.32853V9.41127C125.098 9.74813 124.969 9.86843 124.687 9.86843H118.991V14.7288H124.297C124.6 14.7288 124.73 14.8491 124.73 15.1859V16.2206C124.73 16.5334 124.6 16.6777 124.297 16.6777H118.991V22.2358H124.925C125.207 22.2358 125.337 22.3321 125.337 22.6688V23.7756C125.337 24.1126 125.207 24.2327 124.925 24.2327H117.28ZM137.273 7.87137C137.555 7.87137 137.685 7.99184 137.685 8.32853V9.41127C137.685 9.74813 137.555 9.86843 137.273 9.86843H133.808V23.7517C133.808 24.0884 133.7 24.2327 133.418 24.2327H132.076C131.794 24.2327 131.686 24.0884 131.686 23.7517V9.86843H128.221C127.918 9.86843 127.809 9.74813 127.809 9.41127V8.32853C127.809 7.99184 127.918 7.87137 128.221 7.87137H137.273Z" fill="#A5A6F6"/>
</g>
</svg>
