<svg width="138" height="22" viewBox="0 0 138 22" fill="none" xmlns="http://www.w3.org/2000/svg">
<g id="Group">
<path id="Vector" d="M130.64 9.79236V12.6518H132.65V15.4889C132.655 15.7062 132.646 15.9381 132.615 16.1377L132.599 16.2346C132.595 16.2562 132.591 16.2784 132.587 16.3012L132.57 16.371C132.567 16.3828 132.564 16.3948 132.56 16.4069L132.537 16.4805C132.356 17.0029 131.812 17.6649 130.59 17.6649C129.287 17.6649 128.765 16.9049 128.622 16.371L128.605 16.3012L128.592 16.2346C128.556 16.0158 128.541 15.7424 128.541 15.4889V6.52805C128.541 6.24631 128.558 5.94089 128.609 5.69208L128.643 5.54088C128.646 5.53041 128.648 5.51976 128.651 5.50896L128.67 5.44237C128.674 5.43099 128.677 5.41948 128.681 5.40784L128.706 5.33666C128.892 4.84156 129.384 4.18217 130.579 4.18217C131.502 4.18217 131.999 4.55819 132.264 4.94683L132.311 5.01976C132.326 5.04405 132.34 5.06832 132.353 5.09245L132.391 5.16437L132.423 5.23499L132.451 5.30378L132.476 5.3702L132.496 5.43373L132.514 5.49382L132.528 5.54995L132.539 5.60158C132.544 5.62726 132.549 5.65452 132.553 5.68286L132.565 5.77064C132.566 5.78564 132.568 5.80079 132.57 5.81602L132.582 5.95365L132.59 6.08565L132.597 6.26563L132.599 6.35786V7.44597H137.536L137.537 6.76862L137.54 6.52638L137.54 6.3386L137.535 6.11995L137.531 6.00224L137.522 5.81877L137.51 5.63082L137.499 5.50516C137.165 2.19501 134.677 0.921454 131.649 0.699845L131.447 0.686618L131.243 0.676444C131.14 0.672109 131.037 0.668894 130.934 0.666763L130.727 0.663936C130.692 0.663585 130.657 0.663585 130.623 0.663585L130.414 0.665005C130.38 0.66548 130.345 0.666075 130.311 0.666792L130.104 0.672558L129.9 0.681302L129.697 0.693085L129.495 0.707972C129.428 0.713459 129.362 0.719473 129.295 0.726026L129.097 0.74731C129.065 0.75113 129.032 0.755087 128.999 0.759183L128.804 0.78543C128.352 0.850602 127.917 0.943444 127.504 1.06757L127.329 1.1227C125.416 1.75037 124.025 3.08486 123.74 5.50516L123.711 5.77382L123.69 5.98183L123.671 6.19992L123.656 6.41689C123.647 6.55867 123.641 6.69226 123.641 6.80272L123.642 15.1515L123.643 15.2552L123.647 15.4127L123.652 15.5231L123.659 15.641L123.668 15.7692L123.679 15.9105L123.701 16.1529L123.719 16.3388C123.996 19.4148 126.328 20.7832 129.181 21.106L129.381 21.1269C129.715 21.1588 130.056 21.1768 130.401 21.1819L130.609 21.1834L130.817 21.1819C131.165 21.1768 131.507 21.1588 131.843 21.1269L132.043 21.106C134.905 20.7832 137.222 19.4148 137.504 16.3388L137.526 16.0676L137.543 15.8381L137.558 15.5809L137.568 15.3594L137.576 15.0458V9.79236H130.64ZM96.5936 1.19102H91.6349V15.6956C91.6427 15.9484 91.6349 16.2323 91.5914 16.4406L91.5768 16.5037L91.5587 16.5709C91.552 16.5939 91.5448 16.6175 91.5368 16.6415L91.5109 16.7151C91.3238 17.2138 90.8472 17.8645 89.7072 17.8645C88.6381 17.8645 88.15 17.2772 87.9455 16.7909L87.9156 16.7151C87.9109 16.7026 87.9065 16.6903 87.9023 16.678L87.8789 16.6058L87.8596 16.5368C87.8567 16.5256 87.8539 16.5145 87.8513 16.5037L87.8376 16.4406C87.788 16.2323 87.7817 15.9484 87.788 15.6956V1.19102H82.8309V15.2455L82.83 15.3584L82.8318 15.556L82.8387 15.8467L82.8523 16.2L82.8618 16.3779L82.8682 16.4723L82.8745 16.5418C83.1174 19.142 84.6429 20.4955 86.7972 21.0618L86.9807 21.1078C87.3816 21.2035 87.8029 21.2732 88.2407 21.3197L88.4439 21.3396L88.6493 21.3562L88.8569 21.3697C88.9612 21.3756 89.0663 21.3804 89.1722 21.3841L89.3848 21.3899L89.5993 21.3928C89.6352 21.3932 89.6712 21.3932 89.7072 21.3932L89.923 21.3917C89.9588 21.3912 89.9945 21.3906 90.0302 21.3899L90.2432 21.3841C90.3492 21.3804 90.4545 21.3756 90.559 21.3697L90.767 21.3562L90.9727 21.3396L91.1762 21.3197C94.0764 21.0117 96.2519 19.6914 96.5515 16.5418L96.5555 16.5105L96.5636 16.4279L96.5756 16.2634L96.5863 16.0642L96.5922 15.9203L96.5983 15.6995L96.6 15.556L96.5994 15.4212L96.5962 15.2997C96.5955 15.2808 96.5946 15.2627 96.5936 15.2455V1.19102ZM51.0328 1.19102L48.5592 16.5171L46.0872 1.19102H38.0886L37.6644 20.7975H42.5646L42.6973 2.64719L46.0688 20.7975H51.0406L54.4151 2.64719L54.5483 20.7975H59.4609L59.0223 1.19102H51.0328ZM21.4181 1.19102L17.7863 20.7975H23.0825L25.8194 2.64719L28.4905 20.7975H33.75L30.1333 1.19102H21.4181ZM113.923 16.9765L109.306 1.19102H102.03V20.5931H106.843L106.564 4.30251L111.522 20.5931H118.5V1.19102H113.656L113.923 16.9765ZM69.4026 6.29367C69.3155 5.90646 69.3407 5.49509 69.3857 5.28009C69.3985 5.22303 69.4136 5.1655 69.4313 5.10806L69.4601 5.02203C69.6557 4.47849 70.1133 3.96792 71.1626 3.96792C72.2951 3.96792 72.9589 4.67385 72.9589 5.73325V6.93213H77.7927V5.56558C77.7927 2.48169 75.7744 1.29538 73.6177 0.879595L73.4402 0.847133L73.2623 0.818002L73.0842 0.792062L72.9062 0.769176L72.7285 0.749203L72.5513 0.732006C72.4924 0.72672 72.4336 0.721874 72.3749 0.717443L72.1995 0.705378L72.0254 0.69567L71.8527 0.688181L71.6817 0.682771L71.5126 0.679302L71.2631 0.677432L71.1531 0.677819L70.9344 0.68094C70.8981 0.681723 70.8619 0.682638 70.8258 0.683686L70.6099 0.691581C70.5383 0.694752 70.467 0.698464 70.3961 0.702726L70.1844 0.71717C67.2355 0.942746 64.9342 2.15405 64.4739 4.99459C64.3377 5.85963 64.304 6.6275 64.5207 7.60734C64.8619 9.21749 66.2033 10.3633 67.743 11.3243L67.9813 11.4707C68.0213 11.4949 68.0613 11.519 68.1015 11.5429L68.3433 11.6854L68.5866 11.8255L68.8308 11.9636L69.1973 12.1671L70.1602 12.6948L70.3941 12.8245L70.6241 12.9538L70.8493 13.0829L71.0693 13.212C72.1187 13.8365 72.9595 14.4699 73.2621 15.2271C73.4295 15.6769 73.3929 16.244 73.3119 16.6058L73.2981 16.6641C73.2781 16.7511 73.2529 16.8381 73.2213 16.9237L73.1874 17.0087C72.9647 17.529 72.4779 17.9725 71.4084 17.9725C70.1883 17.9725 69.454 17.2711 69.454 16.214L69.4524 14.3323H64.2496V15.828C64.2496 19.3386 66.4769 20.8635 69.2663 21.3163L69.474 21.3479C69.613 21.3676 69.7534 21.3849 69.8948 21.3996L70.1077 21.4199C70.357 21.4415 70.6092 21.4558 70.8633 21.4633L71.0816 21.4681C71.118 21.4686 71.1545 21.469 71.191 21.4693L71.3006 21.4697C71.3736 21.4697 71.4463 21.4692 71.5187 21.4681L71.735 21.4634C71.7709 21.4623 71.8068 21.4611 71.8425 21.4598L72.0562 21.4503C72.1271 21.4465 72.1977 21.4423 72.2679 21.4374L72.4776 21.4213C72.6167 21.4094 72.7543 21.3952 72.8905 21.3788L73.0935 21.3524L73.294 21.3225C73.3605 21.3119 73.4265 21.3008 73.4921 21.289L73.6875 21.2519C76.0488 20.7788 77.8057 19.496 78.1585 17.0294C78.2071 16.6615 78.237 16.3218 78.2531 16.0112L78.2618 15.8085C78.2629 15.7755 78.2639 15.7428 78.2648 15.7104L78.268 15.5208V15.34L78.265 15.1681L78.2594 15.0051L78.2515 14.8511C78.25 14.8262 78.2484 14.8017 78.2467 14.7775L78.236 14.6372L78.2238 14.5061L78.2104 14.3842L78.1889 14.2188L78.1666 14.0746L78.1375 13.9157L78.124 13.8507C77.7835 12.1433 76.2888 10.9374 74.6282 9.94469L74.3899 9.8043L74.1501 9.66663L73.9092 9.53148L73.5475 9.33309L73.0678 9.07568L72.2498 8.64056L71.9132 8.45843C71.8763 8.4383 71.8398 8.4182 71.8034 8.39813L71.588 8.278L71.3787 8.15835C70.3484 7.56096 69.5696 6.9744 69.4026 6.29367ZM5.6389 6.24558C5.54992 5.87502 5.56383 5.48522 5.60948 5.25871L5.62837 5.1739L5.64982 5.08998C5.81312 4.50124 6.25958 3.89441 7.41355 3.89441C8.56031 3.89441 9.23552 4.60713 9.23552 5.6751V6.88857H14.1259V5.5112C14.1259 2.56832 12.2952 1.3324 10.2494 0.848937L10.071 0.80877C9.92197 0.77684 9.77204 0.748715 9.62184 0.724033L9.44152 0.696044L9.26117 0.67122L9.08103 0.649423L8.90135 0.630512C8.84156 0.624674 8.78188 0.619294 8.72236 0.614348L8.54428 0.600792L8.36737 0.589704L8.19185 0.580945L8.01797 0.574375L7.84595 0.569855L7.59194 0.566406H7.50846C7.43514 0.566406 7.36211 0.566919 7.28937 0.567952L7.07207 0.572621C6.92782 0.576787 6.78482 0.583068 6.64321 0.591532L6.43184 0.605873C6.39679 0.608538 6.36183 0.611343 6.32696 0.614286L6.11888 0.633631C6.04989 0.640642 5.9813 0.64822 5.9131 0.656373L5.70972 0.682563C5.54127 0.705839 5.37542 0.732758 5.21242 0.76345L5.0182 0.802099L4.82681 0.844421L4.63834 0.890464C4.57601 0.906438 4.51419 0.92304 4.45289 0.940279L4.27055 0.993915C2.37262 1.57733 1.00488 2.80092 0.659612 4.9241C0.517116 5.80299 0.492696 6.57614 0.698634 7.56681C1.0612 9.27878 2.53991 10.471 4.19425 11.4728L4.43749 11.6181C4.4782 11.6421 4.51899 11.6659 4.55985 11.6897L4.80562 11.8314L5.17571 12.0399L5.66839 12.3117L6.39509 12.7099L6.74811 12.9064L7.0913 13.1022L7.31354 13.2328C7.35009 13.2545 7.3864 13.2763 7.42244 13.2981L7.63542 13.4291C8.54366 13.998 9.255 14.5839 9.52958 15.2709C9.70941 15.7176 9.66736 16.2845 9.58238 16.6581L9.56784 16.7185C9.54686 16.8045 9.52109 16.8905 9.48922 16.9752L9.45528 17.0594C9.22682 17.5889 8.73652 18.043 7.65297 18.043C6.42816 18.043 5.69554 17.3295 5.69554 16.2578L5.68875 14.3711H0.42749V15.8703C0.42749 20.0786 3.60038 21.4618 7.11423 21.5657L7.33427 21.5706L7.55503 21.5722L7.77333 21.5706C7.88206 21.5691 7.99015 21.5663 8.09755 21.5624L8.31139 21.553C8.41784 21.5474 8.52355 21.5407 8.62848 21.5327L8.83728 21.5151L9.0439 21.4941C9.1124 21.4865 9.18051 21.4784 9.24824 21.4697L9.4502 21.4419C9.51712 21.4321 9.58362 21.4216 9.6497 21.4106L9.84663 21.3757C12.2919 20.9179 14.1142 19.6208 14.4812 17.0838C14.5317 16.7214 14.5633 16.3861 14.581 16.0788L14.5907 15.8781L14.5967 15.6858C14.5981 15.6231 14.5989 15.5618 14.5992 15.5019L14.5985 15.3265L14.5951 15.1596L14.5891 15.0014L14.5811 14.8518L14.5712 14.7109L14.5598 14.5788L14.5407 14.3973L14.5201 14.2359L14.4922 14.0523L14.4605 13.8744C14.1212 12.1872 12.6711 10.9869 11.0395 9.99971L10.7996 9.85673C10.7594 9.83314 10.7191 9.80967 10.6788 9.78632L10.4362 9.64754L10.1926 9.51133L9.94869 9.37749L9.7051 9.24584L8.63028 8.67531L8.28657 8.4911L8.06337 8.3694L7.84566 8.24835L7.63411 8.12778C7.5994 8.10771 7.56497 8.08765 7.53084 8.0676L7.32972 7.94737C6.44169 7.40644 5.7896 6.86524 5.6389 6.24558Z" fill="#1428A0"/>
</g>
</svg>
