<svg width="138" height="29" viewBox="0 0 138 29" fill="none" xmlns="http://www.w3.org/2000/svg">
<g id="Group">
<path id="Vector" d="M25.5796 15.069L25.5978 15.0704L27.4934 15.2686C27.6265 15.2829 27.7487 15.3479 27.8351 15.4494L27.8492 15.4667L27.8312 15.4756C27.9197 15.5875 27.9588 15.7306 27.9392 15.8719C27.525 19.1647 25.9644 22.2063 23.5311 24.463C21.0063 26.8047 17.69 28.1058 14.2465 28.1058C12.574 28.1085 10.9157 27.8005 9.35601 27.1979L9.27104 27.1647C9.14338 27.1175 9.04081 27.0204 8.98651 26.8964L8.97834 26.8765C8.92517 26.753 8.92221 26.6139 8.96947 26.4887L9.71773 24.6632C9.81912 24.4051 10.1065 24.2751 10.366 24.3666L10.3832 24.373C14.2078 25.8498 18.5396 25.018 21.5454 22.2297C23.4586 20.4718 24.6923 18.0968 25.0304 15.5207C25.0663 15.2547 25.297 15.0611 25.5615 15.0682L25.5796 15.069ZM70.3501 7.32132C71.9665 7.32132 73.2306 7.81448 74.0379 8.76159L74.0649 8.79369V7.99221C74.0758 7.7685 74.249 7.58769 74.4701 7.56585L74.4881 7.56443H76.6449C76.8668 7.57977 77.0433 7.75444 77.0625 7.97428L77.0637 7.99221V19.9649C77.1335 21.6531 76.6146 23.3132 75.5958 24.6612C74.4341 26.0751 72.6691 26.791 70.3501 26.791C67.1263 26.791 64.5822 24.7513 64.1634 21.8379C64.1427 21.6277 64.2708 21.4321 64.4699 21.3661L64.4876 21.3607L66.5949 20.8654C66.6059 20.8629 66.6169 20.8608 66.6281 20.8592C66.8594 20.8253 67.0743 20.9853 67.1082 21.2166C67.3006 22.8508 68.7052 24.07 70.3501 24.0308C72.842 24.0308 74.0143 22.7642 74.0375 20.1175L74.0379 20.0369V18.9878C73.1038 20.0354 71.753 20.6143 70.3501 20.5682C66.766 20.5682 64.168 17.7856 64.168 13.9582C64.1352 12.2363 64.7415 10.5631 65.87 9.26193C67.0161 8.00271 68.6476 7.29606 70.3501 7.32132ZM5.43974 21.8829L5.46647 21.8827L5.49329 21.883C6.35362 21.8928 7.04632 22.5885 7.05567 23.4457L7.05574 23.4725C7.05574 23.4814 7.05564 23.4903 7.05548 23.4992C7.0405 24.3769 6.31694 25.0764 5.43923 25.0615C4.56152 25.0465 3.86213 24.323 3.87696 23.4452C3.89163 22.5854 4.58626 21.8967 5.43974 21.8829ZM107.685 7.15472L107.795 7.15554C111.648 7.20875 114.035 9.89069 114.035 14.1834C114.035 14.4105 114.023 14.6375 113.999 14.8633C113.979 15.071 113.81 15.2311 113.603 15.241L113.585 15.2415H104.426C104.483 17.165 106.073 18.687 107.998 18.659C109.489 18.7528 110.848 17.8043 111.275 16.3717C111.353 16.1661 111.575 16.0554 111.785 16.1144L111.802 16.1196L113.63 16.7634C113.731 16.7959 113.813 16.8676 113.86 16.9617L113.869 16.9796C113.919 17.0788 113.927 17.194 113.892 17.2993C113.042 19.8133 110.65 21.4767 107.998 21.3967C106.258 21.414 104.585 20.7346 103.351 19.5101C102.003 18.0925 101.284 16.1918 101.356 14.2374C101.356 9.84666 104.511 7.20786 107.593 7.15553L107.685 7.15472ZM55.8604 7.15473H55.8649C59.7869 7.15473 62.2228 9.84733 62.2228 14.1834C62.2225 14.4105 62.2105 14.6375 62.1868 14.8633C62.1686 15.0721 61.9976 15.2334 61.7899 15.2412L61.7725 15.2415H52.614C52.6705 17.1704 54.2688 18.6945 56.1982 18.6591C57.6906 18.7545 59.0507 17.8054 59.4762 16.3717C59.5524 16.1644 59.7758 16.053 59.9859 16.1142L60.0029 16.1196L61.831 16.7634C61.9379 16.798 62.0248 16.8767 62.0697 16.9796C62.1125 17.0819 62.1125 17.197 62.0697 17.2993C61.2212 19.8117 58.8308 21.4747 56.1802 21.3967C54.4383 21.4164 52.7612 20.7369 51.5243 19.5101C50.1788 18.0914 49.4601 16.1915 49.5297 14.2374C49.5297 9.80231 52.7491 7.15473 55.8604 7.15473ZM41.9921 7.15018C43.7527 7.15018 45.1755 7.57795 46.2292 8.4199C46.9416 8.98769 47.4696 9.75388 47.7466 10.6218L47.7474 10.6253C47.7836 10.7749 47.6957 10.9256 47.5498 10.969L47.535 10.9729L45.3512 11.6934C45.2542 11.7318 45.1464 11.7318 45.0495 11.6934C44.9668 11.6548 44.9045 11.5827 44.8784 11.4953L44.8667 11.4523C44.6678 10.7413 44.0175 9.59966 41.9921 9.59966C40.5513 9.59966 39.6868 10.4282 39.6868 11.2297L39.6871 11.2614C39.6979 11.7826 39.9813 12.4367 41.224 12.6854L41.2627 12.693L43.6672 13.1432C46.3239 13.6782 47.8553 15.1222 47.8857 17.1345L47.8861 17.1957L47.8772 17.1598L47.8766 17.2208C47.8379 19.238 45.8868 21.3607 42.2938 21.3607C38.0838 21.3607 36.4313 18.9788 36.1251 17.574C36.1051 17.427 36.1948 17.2882 36.335 17.245L36.3502 17.2407L38.6016 16.5383C38.6419 16.5318 38.683 16.5318 38.7232 16.5383C38.7804 16.5373 38.837 16.5494 38.8887 16.5737L38.9078 16.5833C38.9905 16.623 39.0515 16.6972 39.0744 16.7859C39.3581 18.1368 40.5783 18.9428 42.3344 18.9428C43.9688 18.9428 44.7118 18.0872 44.7118 17.3128C44.7118 16.5468 44.0643 15.979 42.9481 15.7445L42.9107 15.7368L40.3847 15.246C38.0298 14.8003 36.5619 13.3369 36.5619 11.4322C36.5619 9.11334 39.0519 7.15018 41.9921 7.15018ZM132.803 3.39946H134.771C135.003 3.4134 135.185 3.6017 135.193 3.83233L135.194 3.84971V7.54644H137.562C137.792 7.56263 137.972 7.7501 137.981 7.979L137.981 7.99669V9.95986L137.981 9.97695C137.974 10.1971 137.799 10.3758 137.579 10.3871L137.562 10.3876H135.194V16.9571C135.194 18.0467 135.626 18.497 136.738 18.497C136.963 18.4931 137.188 18.476 137.411 18.4458L137.494 18.4339C137.617 18.4131 137.742 18.4478 137.837 18.5285C137.922 18.6074 137.972 18.7158 137.98 18.831L137.981 18.8527V20.7033C137.983 20.8919 137.86 21.0589 137.679 21.1131C137.16 21.2582 136.625 21.3311 136.087 21.3298L136.013 21.3292C133.664 21.3292 132.198 19.8331 132.168 17.4134L132.168 17.3398V10.4147H130.119C129.896 10.4015 129.716 10.2262 129.697 10.0049L129.696 9.98688V8.01468C129.695 7.78201 129.872 7.58838 130.102 7.5658L130.119 7.56443L130.67 7.56436L130.729 7.56332C131.372 7.54485 132.359 7.28426 132.379 5.84906L132.38 5.80384V3.84971C132.379 3.61704 132.556 3.4234 132.785 3.40083L132.803 3.39946ZM94.559 7.15273L94.6106 7.15473H94.606C96.9242 7.15473 99.2643 8.76986 99.3109 12.2973L99.3116 12.4048V20.7438C99.301 20.9676 99.1272 21.1483 98.9064 21.1702L98.8883 21.1716H96.7313C96.508 21.1584 96.3293 20.9832 96.3094 20.7619L96.3081 20.7438V12.675L96.3077 12.6129C96.2946 11.5848 95.9452 9.93282 93.8275 9.93282C92.2624 9.93282 91.1477 11.1509 91.1256 12.9228L91.1253 12.9767V20.7438C91.1147 20.9676 90.9417 21.1483 90.7201 21.1702L90.702 21.1716H88.5188C88.2947 21.1584 88.116 20.9832 88.0968 20.7619L88.0956 20.7438V12.675L88.0952 12.6129C88.082 11.5848 87.7326 9.93282 85.6142 9.93282C83.9872 9.93282 82.8855 11.142 82.8636 12.9488L82.8633 13.0037V20.7438C82.852 20.9676 82.6789 21.1483 82.4581 21.1702L82.4401 21.1716H80.283C80.0612 21.1563 79.8848 20.9815 79.8657 20.7618L79.8645 20.7438V7.96518C79.875 7.74304 80.0459 7.56287 80.2652 7.53899L80.283 7.5374H82.359C82.5823 7.55056 82.7617 7.72583 82.781 7.94713L82.7822 7.96518V8.73515C83.7159 7.7114 85.0434 7.1362 86.4289 7.15473C88.0338 7.1077 89.5312 7.95614 90.3151 9.35646C91.2487 7.93008 92.8581 7.09561 94.559 7.15273ZM126.855 8.74411C127.681 9.83269 128.107 11.1716 128.063 12.5362L128.061 12.5939V20.7438C128.05 20.966 127.88 21.1462 127.66 21.17L127.642 21.1716H125.459C125.235 21.1584 125.056 20.9832 125.036 20.7619L125.035 20.7438V13.0307C125.035 11.0135 124.085 9.98688 122.284 9.98688C121.489 9.96117 120.728 10.3156 120.235 10.9414C119.759 11.6284 119.513 12.4483 119.532 13.2833L119.533 13.3324V20.7438C119.522 20.9676 119.349 21.1483 119.128 21.1702L119.11 21.1716H116.931C116.707 21.1584 116.528 20.9832 116.509 20.7619L116.507 20.7438V7.95614C116.518 7.73243 116.692 7.5517 116.913 7.52979L116.931 7.52837H119.061C119.282 7.54371 119.459 7.71844 119.478 7.93822L119.479 7.95614V8.85671C120.393 7.74986 121.764 7.12268 123.199 7.15473C124.596 7.09496 125.945 7.68105 126.855 8.74411ZM1.35527 15.6153H16.8581C17.143 15.6177 17.3731 15.8458 17.3803 16.1285L17.3805 16.1466V18.0873C17.3828 18.3722 17.1586 18.6062 16.8761 18.6181L16.858 18.6186H1.35527C1.07033 18.6161 0.84026 18.388 0.832947 18.1053V18.0872V16.1465V16.1284C0.840108 15.8519 1.06051 15.6276 1.33677 15.6158L1.35527 15.6153ZM70.7239 10.0139C68.5986 10.0139 67.2478 11.5268 67.2478 13.9582C67.2478 16.3897 68.5806 17.8981 70.7239 17.8981C72.7681 17.8981 74.1459 16.3132 74.1459 13.9582C74.1459 11.5988 72.7681 10.0139 70.7239 10.0139ZM52.7099 12.6447L52.7041 12.693H59.1114C58.9554 10.9813 57.7491 9.91385 55.9424 9.89268L55.8875 9.89235C54.2955 9.86647 52.9398 11.0308 52.7163 12.5971L52.7099 12.6447ZM104.54 12.6447L104.535 12.693H110.942C110.786 10.9813 109.58 9.91385 107.773 9.89268L107.718 9.89235C106.126 9.86647 104.77 11.0308 104.547 12.5971L104.54 12.6447ZM18.7987 0.805868C18.933 0.854291 19.0418 0.954998 19.1004 1.08505C19.1542 1.21634 19.1542 1.36354 19.1004 1.49475L18.425 3.29589C18.3314 3.56295 18.0394 3.7039 17.7721 3.61107C14.2338 2.37633 10.3076 3.07788 7.41591 5.46164C5.61377 6.97008 4.33416 9.00932 3.75972 11.2881C3.70026 11.5183 3.49305 11.6792 3.25542 11.6799H3.13834L1.28321 11.2341C1.1449 11.2016 1.02612 11.1137 0.954525 10.9909H0.945489C0.870422 10.8683 0.849262 10.7201 0.887027 10.5812C1.62372 7.66414 3.2721 5.05827 5.5923 3.14275C9.28169 0.105398 14.2911 -0.781039 18.7987 0.805868ZM11.9321 8.58656H27.4349C27.7128 8.58883 27.9399 8.80617 27.9564 9.0814L27.9572 9.09983V11.0405C27.9596 11.3255 27.7355 11.5595 27.453 11.5714L27.4349 11.5719H11.9321C11.6491 11.567 11.4216 11.3397 11.4144 11.0589L11.4143 11.0405V9.11782C11.4118 8.83475 11.6332 8.60162 11.9137 8.58719L11.9321 8.58656ZM22.6941 2.66545L22.7208 2.66524L22.7476 2.66547C23.608 2.67533 24.3007 3.37099 24.31 4.22809L24.3101 4.25493C24.3101 4.26389 24.31 4.27284 24.3098 4.28173C24.2949 5.15944 23.5713 5.85882 22.6936 5.84392C21.8158 5.82901 21.1165 5.10538 21.1314 4.22774C21.146 3.36787 21.8407 2.67919 22.6941 2.66545Z" fill="#4FB58B"/>
</g>
</svg>
