<svg xmlns="http://www.w3.org/2000/svg" width="80" height="80" viewBox="0 0 80 80" fill="none">
  <path fillRule="evenodd" clipRule="evenodd" d="M32.697 47.7081C32.7187 46.6169 32.6199 45.528 32.4005 44.461C32.1932 43.4306 31.8365 42.4365 31.3399 41.5105C27.5002 38.9488 24.9429 34.8412 24.3283 30.2407C23.7113 25.6399 25.0972 20.9955 28.127 17.5001C31.1569 14.0051 35.5367 12 40.1405 12C44.7444 12 49.1243 14.0051 52.154 17.5001C55.1815 20.995 56.5674 25.6396 55.9504 30.2407C55.3357 34.8415 52.7783 38.9489 48.9387 41.5105C48.3844 42.5191 47.965 43.5958 47.6829 44.7162C47.4346 45.6932 47.3093 46.6994 47.3069 47.7081C48.4807 48.0751 49.2424 49.2174 49.1388 50.4496C49.0352 51.6843 48.0927 52.6783 46.8754 52.8436C46.8465 52.8484 46.8176 52.8509 46.7863 52.8509H45.8149V59.8966C45.8125 60.006 45.7787 60.1129 45.7161 60.2052L43.1924 63.8217V63.8193C43.1804 63.8388 43.1683 63.8582 43.1538 63.8752L40.4325 67.7712C40.4012 67.8174 40.3602 67.8611 40.3144 67.8952C40.0806 68.0701 39.7479 68.0215 39.5744 67.7834L34.0426 60.2492C33.9558 60.152 33.91 60.0256 33.91 59.8968V52.8511H33.2134L33.1508 52.8462C31.9287 52.6931 30.9766 51.699 30.8681 50.462C30.7573 49.2225 31.5208 48.0752 32.697 47.7081ZM33.437 44.2399C33.666 45.3457 33.772 46.4759 33.7576 47.6061H46.2456C46.2552 46.544 46.3926 45.4868 46.653 44.4562C46.9663 43.2022 47.446 41.9967 48.0775 40.8689C48.1185 40.7936 48.1787 40.7304 48.2486 40.6842C51.8666 38.317 54.2867 34.4866 54.8894 30.1822C55.4896 25.8755 54.2121 21.5201 51.3847 18.2392C48.5573 14.9582 44.457 13.0721 40.1475 13.0697C35.8353 13.0673 31.7351 14.9508 28.9053 18.2295C26.0755 21.5082 24.7931 25.8638 25.3909 30.1682C25.9887 34.4749 28.4063 38.3077 32.0219 40.6776C32.0966 40.7238 32.1617 40.7894 32.205 40.8672C32.7884 41.9196 33.2054 43.057 33.4464 44.2382L33.437 44.2399ZM37.3852 63.0028H42.4639L44.7465 59.729V52.8506H42.1987V59.8963C42.1891 60.1855 41.9529 60.414 41.666 60.414C41.3792 60.414 41.143 60.1855 41.1333 59.8963V52.8506H38.588V59.8963C38.5783 60.1855 38.3421 60.414 38.0553 60.414C37.7684 60.414 37.5322 60.1855 37.5226 59.8963V52.8506H34.9748V59.7215L37.3852 63.0028ZM41.7142 64.077H38.1733L39.9908 66.5488L41.719 64.077H41.7142ZM57.0345 35.4562C56.7622 35.3468 56.6296 35.0357 56.7381 34.7586C56.8465 34.484 57.1575 34.3503 57.4298 34.4621L61.5974 36.1415C61.8698 36.2509 62.0023 36.562 61.8939 36.8391C61.7854 37.1137 61.4744 37.2474 61.2021 37.1356L57.0321 35.4562H57.0345ZM57.4298 22.0037C57.1575 22.1155 56.8465 21.9819 56.738 21.7072C56.6296 21.4302 56.7621 21.1191 57.0345 21.0097L61.2045 19.3303H61.2021C61.4768 19.2185 61.7854 19.3521 61.8939 19.6292C62.0023 19.9039 61.8697 20.2149 61.5974 20.3243L57.4274 22.0037L57.4298 22.0037ZM58.3434 28.7701C58.0493 28.7701 57.8107 28.5295 57.8107 28.2354C57.8107 27.9389 58.0493 27.6983 58.3434 27.6983H63.0677C63.3618 27.6983 63.6004 27.9389 63.6004 28.2354C63.6004 28.5295 63.3618 28.7701 63.0677 28.7701H58.3434ZM22.583 34.4549C22.7156 34.4014 22.865 34.4014 22.9976 34.4597C23.1278 34.5181 23.2314 34.6274 23.2796 34.7635C23.3302 34.8996 23.3254 35.0479 23.2627 35.1791C23.2001 35.3104 23.0892 35.41 22.9542 35.4562L18.5071 37.1356C18.2323 37.2401 17.9286 37.0992 17.8249 36.8221C17.7237 36.545 17.8635 36.2364 18.1383 36.1343L22.5854 34.4548L22.583 34.4549ZM22.9542 21.0049C23.0892 21.0511 23.2001 21.1508 23.2627 21.2796C23.3254 21.4108 23.3302 21.5615 23.2796 21.6976C23.2314 21.8313 23.1278 21.9407 22.9976 21.999C22.865 22.0573 22.7156 22.0597 22.583 22.0038L18.1359 20.3244H18.1383C17.8635 20.2223 17.7237 19.9137 17.8249 19.6366C17.9286 19.3619 18.2323 19.221 18.5071 19.3231L22.9542 21.0025L22.9542 21.0049ZM21.3802 27.6935C21.6743 27.6935 21.9129 27.9341 21.9129 28.2306C21.9129 28.5271 21.6743 28.7653 21.3802 28.7653H16.9331C16.639 28.7653 16.4004 28.5271 16.4004 28.2306C16.4004 27.9341 16.639 27.6935 16.9331 27.6935H21.3802ZM33.2462 48.6782C32.4821 48.79 31.9133 49.4487 31.9133 50.2288C31.9133 51.0066 32.4821 51.6676 33.2462 51.777H46.7543C47.5184 51.6677 48.0872 51.0066 48.0872 50.2288C48.0872 49.4487 47.5184 48.79 46.7543 48.6782H33.2462ZM41.268 21.5301L41.1113 20.2516H39.1758L39.0529 21.5179C39.0336 21.744 38.8721 21.9311 38.6552 21.987C38.3611 22.0599 38.0718 22.1571 37.7899 22.2738C37.5103 22.3905 37.2403 22.529 36.98 22.687C36.792 22.7988 36.5533 22.7842 36.3822 22.6481L35.3433 21.8363L33.9718 23.2193L34.801 24.2158C34.9528 24.398 34.9673 24.6605 34.8347 24.8574C34.5286 25.3751 34.2996 25.9365 34.155 26.5222C34.1019 26.7385 33.9212 26.8989 33.7018 26.9233L32.34 27.0861V29.0329L33.6874 29.1568C33.9115 29.1787 34.0996 29.3391 34.155 29.5603C34.2297 29.8568 34.3237 30.1484 34.4394 30.4304C34.5575 30.7123 34.6925 30.9869 34.8492 31.2494C34.9625 31.439 34.9456 31.6796 34.8106 31.8546L33.9622 32.9507L35.3313 34.3312L36.3654 33.4514C36.5461 33.2958 36.804 33.2813 37.0017 33.4125C37.2548 33.5656 37.5199 33.6993 37.7922 33.8111C38.0718 33.9302 38.3611 34.025 38.6551 34.1003C38.8865 34.1586 39.0528 34.3652 39.0577 34.6083L39.1806 35.928H41.1113L41.2728 34.5597C41.2993 34.3312 41.4656 34.1465 41.6874 34.0979C41.9766 34.025 42.2611 33.9302 42.5359 33.816C42.8155 33.6993 43.0878 33.5608 43.3481 33.4028C43.5434 33.2837 43.7917 33.3056 43.9652 33.4538L44.9993 34.3337L46.3684 32.9532L45.5175 31.8619C45.3729 31.6772 45.3609 31.4196 45.491 31.2251C45.7971 30.7075 46.0261 30.1484 46.1708 29.5651C46.2286 29.3318 46.4335 29.1665 46.6697 29.1593L47.9376 29.0353V27.0861L46.6239 26.9257C46.3974 26.899 46.2142 26.7313 46.166 26.5052C46.0189 25.9171 45.7875 25.3532 45.4766 24.8331C45.3609 24.6386 45.3802 24.3907 45.5248 24.2157L46.354 23.2192L44.9825 21.8363L43.946 22.6505C43.7628 22.7963 43.5049 22.8012 43.3145 22.6675C42.8035 22.3613 42.2491 22.1328 41.6706 21.987C41.4585 21.9335 41.2994 21.7536 41.2729 21.5325L41.268 21.5301ZM42.1068 19.6489V19.6514C42.0755 19.3816 41.8489 19.1799 41.5814 19.1774H38.6961C38.4069 19.1774 38.1683 19.4156 38.1634 19.7073L38.0333 21.0488C37.8163 21.1169 37.6018 21.1947 37.3873 21.2846C37.1727 21.3721 36.9606 21.4742 36.7558 21.586L35.6253 20.6988C35.4132 20.5336 35.1143 20.553 34.9239 20.7426L32.8751 22.8084C32.6726 23.0126 32.6678 23.3431 32.8655 23.5546L33.7525 24.6215C33.6464 24.8257 33.5476 25.0323 33.4608 25.2437C33.374 25.4552 33.2945 25.6739 33.2246 25.9024L31.7471 26.0774C31.4795 26.109 31.2794 26.3374 31.277 26.6096V29.5189C31.277 29.813 31.5157 30.0536 31.8073 30.056L33.227 30.1897C33.2945 30.4084 33.3717 30.6247 33.4609 30.841C33.55 31.0549 33.6489 31.2688 33.7573 31.4778L32.8317 32.659V32.6565C32.6654 32.8704 32.6847 33.1742 32.8727 33.3662L34.9215 35.4321C35.124 35.6362 35.4518 35.6387 35.6615 35.4394L36.7631 34.5012C36.9656 34.6082 37.1704 34.7078 37.3801 34.7953C37.5899 34.8828 37.8044 34.9606 38.0261 35.0311L38.1611 36.5088C38.1852 36.7834 38.4142 36.9949 38.689 36.9949H41.5742C41.8514 36.9949 42.0828 36.7761 42.1045 36.4966L42.2757 35.0335C42.495 34.9654 42.7144 34.8852 42.9289 34.7953C43.1434 34.7054 43.3507 34.6081 43.5459 34.5012L44.6716 35.4588C44.8813 35.6387 45.1946 35.6265 45.3899 35.4297L47.4363 33.3662C47.634 33.1669 47.646 32.8485 47.4628 32.6346L46.5686 31.4753C46.677 31.2687 46.7759 31.0548 46.8651 30.8386C46.9542 30.6223 47.0314 30.4059 47.0989 30.1872L48.5186 30.0511H48.5162C48.7886 30.0243 48.9983 29.7935 48.9958 29.5188V26.612C48.9983 26.3301 48.7813 26.0967 48.5041 26.0773L47.0965 25.9047C47.029 25.6836 46.9495 25.4624 46.8603 25.2461C46.7711 25.0298 46.6747 24.8232 46.5686 24.6239L47.475 23.5351V23.5326C47.6509 23.3212 47.6389 23.0076 47.4436 22.8108L45.3972 20.7473C45.2044 20.5504 44.8958 20.5359 44.6838 20.7109L43.5678 21.5858C43.3629 21.474 43.1508 21.3743 42.9363 21.2844C42.7217 21.1945 42.5048 21.1143 42.2806 21.0462L42.1068 19.6489ZM43.5603 28.0435C43.5579 26.4078 42.413 25.0006 40.8221 24.6846C39.2313 24.3663 37.6404 25.2242 37.0209 26.736C36.399 28.2477 36.9245 29.9879 38.2743 30.8969C39.6217 31.8034 41.4199 31.626 42.5647 30.4691C43.2035 29.8275 43.5627 28.9524 43.5603 28.0435ZM43.3169 24.8596C41.8104 23.343 39.4506 23.1121 37.6814 24.3055C35.9122 25.5013 35.2276 27.7883 36.0424 29.7716C36.8595 31.7548 38.9517 32.8801 41.0391 32.4596C43.1265 32.0391 44.6306 30.1896 44.6282 28.0435C44.6282 26.8477 44.1581 25.703 43.3193 24.8596L43.3169 24.8596Z" fill="#E88800"/>
</svg>